<?xml version="1.0" encoding="UTF-8" standalone="no"?>
<svg
   xmlns:dc="http://purl.org/dc/elements/1.1/"
   xmlns:cc="http://creativecommons.org/ns#"
   xmlns:rdf="http://www.w3.org/1999/02/22-rdf-syntax-ns#"
   xmlns:svg="http://www.w3.org/2000/svg"
   xmlns="http://www.w3.org/2000/svg"
   viewBox="0 0 1000 666.66669"
   height="666.66669"
   width="1000"
   xml:space="preserve"
   id="svg2"
   version="1.1"><metadata
     id="metadata8"><rdf:RDF><cc:Work
         rdf:about=""><dc:format>image/svg+xml</dc:format><dc:type
           rdf:resource="http://purl.org/dc/dcmitype/StillImage" /></cc:Work></rdf:RDF></metadata><defs
     id="defs6" /><g
     transform="matrix(1.3333333,0,0,-1.3333333,0,666.66667)"
     id="g10"><g
       transform="scale(0.1)"
       id="g12"><path
         id="path14"
         style="fill:#fcebdb;fill-opacity:1;fill-rule:nonzero;stroke:none"
         d="M 7500,0 H 0 V 5000 H 7500 V 0" /><path
         id="path16"
         style="fill:#ede2c7;fill-opacity:1;fill-rule:nonzero;stroke:none"
         d="m 3776.35,5000 c 0,0 450.88,-1510.95 -507.31,-1705.94 -261.83,-53.29 -561.51,-122.37 -789.87,-285.62 C 2078.95,2722.26 2086.6,2088.46 1621.37,1884.3 1035.5,1627.22 426.016,1963.62 -0.0976563,2364.1 V 5000 H 3776.35" /><path
         id="path18"
         style="fill:#ede2c7;fill-opacity:1;fill-rule:nonzero;stroke:none"
         d="m 1455.92,0 c 0,0 49.94,1239.15 1674.86,1119.17 338.02,-24.96 702.73,-34.78 1037.6,55.01 248.02,66.49 465.24,222.1 596.91,443.89 145.24,244.63 146.33,547.34 329.94,774.65 411.42,509.31 1047.55,706.07 1672.96,500.76 264.35,-86.78 508.58,-229.26 731.91,-393.48 V 0 H 1455.92" /><path
         id="path20"
         style="fill:#e9a584;fill-opacity:1;fill-rule:nonzero;stroke:none"
         d="m 5964.21,3612.25 c -76.58,34.04 -113.34,122.07 -84.65,200.81 66.78,183.29 226.06,483.09 539.04,411.96 416.7,-94.71 152.25,-882.41 -454.39,-612.77" /><path
         id="path22"
         style="fill:#e9a584;fill-opacity:1;fill-rule:nonzero;stroke:none"
         d="m 6824.78,3786.73 c -60.08,26.7 -88.92,95.77 -66.41,157.54 52.39,143.79 177.34,379 422.9,323.19 326.91,-74.3 119.44,-692.27 -356.49,-480.73" /><path
         id="path24"
         style="fill:#e9a584;fill-opacity:1;fill-rule:nonzero;stroke:none"
         d="m 6291.27,3151.65 c -37.29,16.57 -55.18,59.43 -41.21,97.76 32.51,89.25 110.06,235.21 262.45,200.58 202.89,-46.11 74.13,-429.63 -221.24,-298.34" /><path
         id="path26"
         style="fill:#576c61;fill-opacity:1;fill-rule:nonzero;stroke:none"
         d="m 5970.29,3572.11 c 42.81,-18.74 87.31,-33.71 132.97,-43.54 45.69,-9.43 92.63,-13.79 139.17,-10.26 46.53,3.13 92.48,14.23 135.22,32.71 42.78,18.46 81.94,44.9 115.72,76.85 67.6,63.95 113.07,150.91 126.62,242.73 6.63,45.84 4.94,93.16 -7.8,137.64 -12.51,44.44 -37.41,85.37 -72.11,115.61 -34.44,30.71 -78.04,49.95 -123.29,59.23 -45.33,9.43 -92.37,12.81 -138.21,5.32 -45.89,-6.7 -90.11,-23.58 -129.69,-47.79 -39.73,-24.16 -74.89,-55.47 -105.67,-90.37 -61.6,-70.17 -106.69,-153.47 -142.11,-239.67 -8.4,-21.74 -18.2,-43.21 -22.21,-66.18 -4.06,-22.93 -2.57,-46.72 3.5,-69.18 11.73,-45.26 45.31,-83.87 87.89,-103.1 z m 0,0 c -42.7,18.93 -76.68,57.4 -88.8,102.85 -6.26,22.54 -7.92,46.5 -3.97,69.67 3.92,23.26 13.6,44.84 21.86,66.63 34.91,86.59 79.52,170.41 141.04,241.45 30.73,35.33 65.98,67.16 106.02,91.88 39.89,24.77 84.67,42.23 131.27,49.36 46.56,7.91 94.39,4.8 140.42,-4.47 46.12,-9.13 91.13,-28.54 126.88,-60.02 35.71,-31.41 61.01,-73.86 73.52,-119.42 12.72,-45.62 14.08,-93.79 7.05,-140.27 -14.39,-93.06 -60.99,-180.55 -129.62,-244.64 -34.31,-32.01 -73.98,-58.4 -117.19,-76.7 -43.17,-18.33 -89.46,-29.17 -136.21,-32 -46.76,-3.23 -93.8,1.47 -139.49,11.23 -45.68,10.14 -90.1,25.42 -132.78,44.45" /><path
         id="path28"
         style="fill:#576c61;fill-opacity:1;fill-rule:nonzero;stroke:none"
         d="m 6830.87,3746.59 25.59,-10.06 c 8.59,-3.18 16.89,-7.16 25.79,-9.44 17.59,-5.11 34.93,-11.17 53.04,-14.15 35.7,-8.26 72.65,-10.39 109.06,-8.08 73.13,4.27 143.69,35.78 196.57,85.87 53.1,50 88.34,118.4 98.92,190.19 5.15,35.89 3.8,72.9 -6.13,107.69 -9.73,34.79 -29.5,66.59 -56.62,90.1 -26.9,23.97 -60.92,38.75 -96.22,46.54 -35.48,7.41 -72.3,10.06 -108.17,4.22 -35.92,-5.22 -70.54,-18.42 -101.55,-37.36 -31.12,-18.9 -58.68,-43.41 -82.82,-70.74 -48.32,-54.96 -83.73,-120.24 -111.57,-187.82 -6.6,-17.04 -14.3,-33.87 -17.45,-51.86 -3.19,-17.96 -2.04,-36.61 2.7,-54.21 9.17,-35.49 35.46,-65.78 68.86,-80.89 z m 0,0 c -33.52,14.82 -60.22,44.97 -69.76,80.64 -4.94,17.69 -6.26,36.51 -3.19,54.69 3.06,18.29 10.64,35.22 17.11,52.33 27.32,67.95 62.26,133.76 110.49,189.58 24.1,27.77 51.75,52.8 83.18,72.26 31.32,19.5 66.51,33.28 103.13,38.92 36.59,6.26 74.19,3.88 110.38,-3.36 36.17,-7.65 71.59,-22.59 99.82,-47.33 28.13,-24.67 48.29,-58.01 58.01,-93.91 9.93,-35.93 10.94,-73.79 5.38,-110.31 -11.42,-73.04 -47.77,-141.96 -101.92,-192.11 -53.93,-50.23 -125.47,-81.35 -199.03,-85.01 -36.62,-2 -73.67,0.46 -109.37,9.04 -18.12,3.14 -35.44,9.36 -53,14.63 -8.88,2.36 -17.17,6.41 -25.73,9.66 l -25.5,10.28" /><path
         id="path30"
         style="fill:#576c61;fill-opacity:1;fill-rule:nonzero;stroke:none"
         d="m 6297.36,3111.5 c 10.65,-3.99 21.04,-8.71 31.88,-12.1 10.92,-3.17 21.68,-6.94 32.92,-8.79 22.15,-5.14 45.08,-6.46 67.67,-5.04 45.4,2.8 88.99,22.7 121.5,53.83 32.67,31.1 54.06,73.5 60.45,117.7 3.18,22.1 2.36,44.86 -3.72,66.22 -5.95,21.37 -18.07,40.85 -34.67,55.25 -16.49,14.64 -37.31,23.89 -59.07,28.45 l -16.56,2.72 c -2.77,0.39 -5.51,1.07 -8.3,1.21 l -8.37,0.21 c -5.58,0.09 -11.17,0.39 -16.74,0.32 l -16.63,-1.97 c -44.49,-6.05 -84.39,-32.26 -114.06,-66 -30.22,-33.72 -52.37,-74.17 -69.91,-115.98 -3.98,-10.62 -8.94,-21 -10.83,-32.18 -1.97,-11.16 -1.26,-22.73 1.69,-33.66 5.7,-22.02 22.02,-40.82 42.75,-50.19 z m 0,0 c -20.8,9.21 -37.36,27.92 -43.27,50.05 -3.06,10.97 -3.88,22.64 -1.98,33.93 1.85,11.36 6.74,21.8 10.63,32.45 16.97,42.14 38.15,83.28 68.11,118.04 14.62,17.64 32.19,32.88 51.59,45.24 19.22,12.81 41.56,20.68 64.3,24.62 l 17.24,2.18 c 5.79,0.12 11.58,-0.13 17.37,-0.19 l 8.68,-0.15 c 2.89,-0.13 5.72,-0.8 8.58,-1.18 l 17.13,-2.67 c 22.68,-4.56 44.87,-14.12 62.6,-29.63 17.67,-15.5 30.33,-36.45 36.42,-58.97 6.22,-22.52 6.84,-46.22 3.37,-69.05 -7.28,-45.68 -30.35,-88.47 -64.21,-119.51 -33.78,-31.11 -78.38,-50.06 -124.02,-52.18 -22.71,-1.25 -45.7,0.27 -67.86,5.59 -11.24,1.95 -21.99,5.8 -32.89,9.07 -10.82,3.49 -21.18,8.29 -31.79,12.36" /><path
         id="path32"
         style="fill:#83a48f;fill-opacity:1;fill-rule:nonzero;stroke:none"
         d="m 1058.23,830.441 c -6.4,-11.652 -18.46,-24.3 -33.08,-34.699 -12.13,-8.613 -25.291,-15.222 -38.076,-19.121 -19.316,-5.891 -36.824,-5.551 -52.039,1.008 -6.945,2.992 -16.359,8.34 -21.734,16.812 -0.953,1.5 -1.735,3.071 -2.324,4.649 -3.422,9.18 -0.364,18.762 2.812,25.18 13.274,26.851 46.285,32.761 70.102,46.429 20.889,12 29.929,39.961 54.639,16.789 7.93,-7.437 14.92,-15.886 20.7,-25.109 4.11,-6.539 7.7,-16.078 -1,-31.938 z m 20.05,43.899 c -12.4,19.75 -29.5,36.531 -49.47,48.551 -4.84,2.918 -10.27,5.648 -15.88,4.898 -9.69,-1.277 -14.848,-11.648 -20.2,-19.82 -10.777,-16.481 -27.695,-27.008 -46.769,-31.028 -34.75,-7.3 -69.375,-50 -56.055,-85.711 1.125,-3.011 2.582,-5.96 4.41,-8.839 7.387,-11.641 19.164,-19.961 31.821,-25.411 37.609,-16.21 80.313,-2.121 112.033,20.442 29.11,20.687 63.57,59.527 40.11,96.918" /><path
         id="path34"
         style="fill:#83a48f;fill-opacity:1;fill-rule:nonzero;stroke:none"
         d="m 1103.75,1065.16 c -6.4,-11.65 -18.46,-24.3 -33.09,-34.7 -12.12,-8.62 -25.28,-15.24 -38.06,-19.13 -19.32,-5.88 -36.83,-5.55 -52.041,1.01 -6.95,2.99 -16.36,8.34 -21.735,16.81 -0.953,1.5 -1.734,3.07 -2.332,4.66 -3.422,9.17 -0.355,18.75 2.821,25.17 13.269,26.86 46.287,32.76 70.097,46.43 20.89,11.99 29.93,39.96 54.64,16.8 7.93,-7.44 14.92,-15.9 20.7,-25.11 4.11,-6.54 7.71,-16.09 -1,-31.94 z m 20.05,43.89 c -12.4,19.75 -29.49,36.53 -49.47,48.56 -4.84,2.91 -10.28,5.63 -15.88,4.9 -9.69,-1.28 -14.85,-11.65 -20.2,-19.83 -10.78,-16.47 -27.69,-27.02 -46.766,-31.02 -34.75,-7.3 -69.375,-50 -56.054,-85.71 1.117,-3.01 2.578,-5.97 4.41,-8.85 7.383,-11.63 19.164,-19.952 31.82,-25.409 37.61,-16.211 80.3,-2.121 112.04,20.439 29.09,20.69 63.56,59.53 40.1,96.92" /><path
         id="path36"
         style="fill:#83a48f;fill-opacity:1;fill-rule:nonzero;stroke:none"
         d="m 816.199,1061.05 c -6.398,-11.65 -18.457,-24.29 -33.078,-34.69 -12.125,-8.62 -25.289,-15.23 -38.07,-19.12 -19.321,-5.89 -36.828,-5.55 -52.043,1 -6.945,3 -16.36,8.34 -21.735,16.82 -0.953,1.49 -1.73,3.06 -2.324,4.65 -3.422,9.18 -0.359,18.76 2.813,25.17 13.273,26.86 46.285,32.77 70.101,46.44 20.891,11.98 29.93,39.96 54.637,16.79 7.934,-7.45 14.926,-15.89 20.707,-25.11 4.106,-6.54 7.699,-16.09 -1.008,-31.95 z m 20.051,43.9 c -12.398,19.76 -29.492,36.53 -49.465,48.56 -4.844,2.92 -10.277,5.64 -15.883,4.9 -9.691,-1.28 -14.847,-11.65 -20.199,-19.83 -10.777,-16.47 -27.695,-27.02 -46.765,-31.02 -34.754,-7.31 -69.375,-50 -56.055,-85.71 1.121,-3.01 2.582,-5.96 4.406,-8.84 7.391,-11.64 19.164,-19.959 31.82,-25.408 37.61,-16.211 80.309,-2.133 112.039,20.438 29.102,20.68 63.563,59.53 40.102,96.91" /><path
         id="path38"
         style="fill:#83a48f;fill-opacity:1;fill-rule:nonzero;stroke:none"
         d="m 716.676,830.441 c -6.403,-11.652 -18.461,-24.3 -33.086,-34.699 -12.121,-8.613 -25.285,-15.222 -38.067,-19.121 -19.316,-5.891 -36.828,-5.551 -52.043,1.008 -6.949,2.992 -16.355,8.34 -21.734,16.812 -0.949,1.5 -1.73,3.071 -2.328,4.649 -3.422,9.18 -0.355,18.762 2.816,25.18 13.274,26.851 46.286,32.761 70.106,46.429 20.887,12 29.926,39.961 54.633,16.789 7.933,-7.437 14.922,-15.886 20.703,-25.109 4.105,-6.539 7.707,-16.078 -1,-31.938 z m 20.047,43.899 c -12.399,19.75 -29.493,36.531 -49.465,48.551 -4.84,2.918 -10.281,5.648 -15.879,4.898 -9.695,-1.277 -14.852,-11.648 -20.203,-19.82 -10.781,-16.481 -27.696,-27.008 -46.766,-31.028 -34.754,-7.3 -69.375,-50 -56.055,-85.711 1.118,-3.011 2.579,-5.96 4.411,-8.839 7.379,-11.641 19.164,-19.961 31.82,-25.411 37.605,-16.21 80.301,-2.121 112.035,20.442 29.098,20.687 63.567,59.527 40.102,96.918" /><path
         id="path40"
         style="fill:#83a48f;fill-opacity:1;fill-rule:nonzero;stroke:none"
         d="m 389.578,911.941 c -6.398,-11.652 -18.461,-24.3 -33.086,-34.691 -12.117,-8.629 -25.281,-15.238 -38.062,-19.129 -19.325,-5.891 -36.828,-5.551 -52.043,1.008 -6.949,2.992 -16.36,8.34 -21.735,16.812 -0.953,1.5 -1.738,3.059 -2.328,4.661 -3.422,9.168 -0.359,18.75 2.813,25.168 13.277,26.859 46.289,32.761 70.105,46.429 20.887,11.992 29.93,39.961 54.637,16.789 7.934,-7.437 14.922,-15.886 20.703,-25.109 4.106,-6.547 7.703,-16.09 -1.004,-31.938 z m 20.051,43.899 c -12.399,19.75 -29.492,36.519 -49.469,48.55 -4.84,2.91 -10.277,5.64 -15.879,4.91 -9.691,-1.28 -14.847,-11.652 -20.199,-19.839 -10.781,-16.469 -27.695,-27.012 -46.773,-31.02 -34.746,-7.3 -69.371,-50 -56.047,-85.711 1.117,-3 2.578,-5.96 4.406,-8.839 7.383,-11.629 19.168,-19.961 31.816,-25.411 37.614,-16.21 80.309,-2.121 112.043,20.442 29.094,20.687 63.563,59.527 40.102,96.918" /><path
         id="path42"
         style="fill:#83a48f;fill-opacity:1;fill-rule:nonzero;stroke:none"
         d="m 877.141,915.969 c -3.375,-6.149 -9.731,-12.821 -17.438,-18.289 -6.387,-4.551 -13.324,-8.032 -20.062,-10.078 -10.184,-3.11 -19.411,-2.922 -27.43,0.519 -3.66,1.59 -8.617,4.41 -11.453,8.871 -0.5,0.789 -0.914,1.61 -1.227,2.449 -1.801,4.84 -0.191,9.891 1.485,13.27 6.992,14.16 24.394,17.258 36.949,24.469 11.004,6.32 15.769,21.058 28.789,8.859 4.184,-3.93 7.863,-8.379 10.918,-13.25 2.164,-3.437 4.058,-8.469 -0.531,-16.82 z m 10.562,23.133 c -6.531,10.41 -15.539,19.25 -26.066,25.589 -2.555,1.528 -5.414,2.981 -8.371,2.59 -5.106,-0.679 -7.828,-6.152 -10.649,-10.449 -5.679,-8.691 -14.594,-14.242 -24.648,-16.363 -18.313,-3.848 -36.563,-26.348 -29.539,-45.168 0.59,-1.59 1.359,-3.141 2.324,-4.672 3.891,-6.129 10.101,-10.508 16.769,-13.379 19.821,-8.551 42.325,-1.121 59.047,10.77 15.332,10.91 33.504,31.371 21.133,51.082" /><path
         id="path44"
         style="fill:#83a48f;fill-opacity:1;fill-rule:nonzero;stroke:none"
         d="m 489.578,787.582 c -3.371,-6.141 -9.73,-12.801 -17.433,-18.293 -6.391,-4.539 -13.329,-8.027 -20.067,-10.078 -10.18,-3.109 -19.406,-2.922 -27.426,0.539 -3.66,1.57 -8.621,4.391 -11.453,8.852 -0.504,0.789 -0.918,1.609 -1.226,2.449 -1.805,4.84 -0.192,9.89 1.48,13.281 6.996,14.148 24.395,17.258 36.945,24.469 11.012,6.32 15.774,21.051 28.797,8.851 4.18,-3.933 7.868,-8.382 10.91,-13.242 2.165,-3.441 4.059,-8.469 -0.527,-16.828 z m 10.567,23.129 c -6.536,10.41 -15.54,19.25 -26.067,25.59 -2.555,1.539 -5.422,2.98 -8.375,2.59 -5.105,-0.68 -7.82,-6.153 -10.644,-10.45 -5.68,-8.679 -14.594,-14.242 -24.649,-16.351 -18.316,-3.86 -36.562,-26.36 -29.543,-45.18 0.594,-1.578 1.36,-3.14 2.324,-4.648 3.895,-6.141 10.102,-10.532 16.77,-13.403 19.824,-8.55 42.324,-1.121 59.047,10.77 15.34,10.91 33.504,31.383 21.137,51.082" /><path
         id="path46"
         style="fill:#83a48f;fill-opacity:1;fill-rule:nonzero;stroke:none"
         d="m 563.805,952.84 c -3.371,-6.141 -9.727,-12.809 -17.434,-18.289 -6.391,-4.539 -13.328,-8.031 -20.062,-10.082 -10.188,-3.098 -19.411,-2.918 -27.43,0.531 -3.66,1.578 -8.621,4.391 -11.453,8.871 -0.5,0.789 -0.918,1.609 -1.231,2.449 -1.8,4.828 -0.187,9.879 1.485,13.262 7,14.156 24.394,17.27 36.949,24.469 11.008,6.32 15.769,21.07 28.793,8.859 4.18,-3.93 7.867,-8.379 10.914,-13.238 2.164,-3.453 4.059,-8.481 -0.531,-16.832 z m 10.57,23.14 c -6.539,10.411 -15.547,19.239 -26.074,25.58 -2.547,1.54 -5.414,2.97 -8.367,2.59 -5.11,-0.67 -7.825,-6.138 -10.649,-10.451 -5.68,-8.679 -14.597,-14.238 -24.644,-16.359 -18.317,-3.84 -36.567,-26.34 -29.547,-45.168 0.59,-1.582 1.359,-3.141 2.324,-4.66 3.891,-6.133 10.102,-10.524 16.77,-13.391 19.82,-8.539 42.328,-1.121 59.05,10.77 15.336,10.91 33.5,31.379 21.137,51.089" /><path
         id="path48"
         style="fill:#83a48f;fill-opacity:1;fill-rule:nonzero;stroke:none"
         d="m 1191.34,952.84 c -3.37,-6.141 -9.73,-12.809 -17.43,-18.289 -6.4,-4.539 -13.33,-8.031 -20.07,-10.082 -10.18,-3.098 -19.41,-2.918 -27.42,0.531 -3.67,1.578 -8.63,4.391 -11.46,8.871 -0.5,0.789 -0.92,1.609 -1.23,2.449 -1.8,4.828 -0.19,9.879 1.48,13.262 7,14.156 24.4,17.27 36.95,24.469 11.01,6.32 15.77,21.07 28.8,8.859 4.18,-3.93 7.86,-8.379 10.91,-13.238 2.16,-3.453 4.06,-8.481 -0.53,-16.832 z m 10.57,23.14 c -6.54,10.411 -15.55,19.239 -26.08,25.58 -2.54,1.54 -5.41,2.97 -8.36,2.59 -5.11,-0.67 -7.83,-6.138 -10.65,-10.451 -5.68,-8.679 -14.6,-14.238 -24.65,-16.359 -18.31,-3.84 -36.56,-26.34 -29.54,-45.168 0.59,-1.582 1.36,-3.141 2.33,-4.66 3.89,-6.133 10.09,-10.524 16.76,-13.391 19.82,-8.539 42.33,-1.121 59.05,10.77 15.34,10.91 33.5,31.379 21.14,51.089" /><path
         id="path50"
         style="fill:#83a48f;fill-opacity:1;fill-rule:nonzero;stroke:none"
         d="m 958.051,1156.94 c -3.367,-6.14 -9.727,-12.8 -17.43,-18.28 -6.391,-4.55 -13.332,-8.04 -20.062,-10.09 -10.188,-3.09 -19.411,-2.92 -27.43,0.54 -3.66,1.57 -8.621,4.4 -11.453,8.86 -0.504,0.79 -0.918,1.62 -1.231,2.45 -1.8,4.83 -0.187,9.88 1.485,13.27 6.996,14.15 24.394,17.27 36.949,24.47 11.004,6.32 15.769,21.06 28.793,8.85 4.18,-3.92 7.863,-8.38 10.914,-13.23 2.16,-3.45 4.055,-8.48 -0.535,-16.84 z m 10.57,23.14 c -6.535,10.41 -15.547,19.25 -26.07,25.58 -2.551,1.55 -5.418,2.98 -8.371,2.59 -5.11,-0.67 -7.825,-6.14 -10.645,-10.45 -5.683,-8.68 -14.597,-14.24 -24.648,-16.34 -18.317,-3.85 -36.563,-26.36 -29.547,-45.18 0.594,-1.58 1.363,-3.15 2.332,-4.66 3.891,-6.13 10.098,-10.52 16.766,-13.4 19.82,-8.53 42.324,-1.11 59.046,10.77 15.336,10.91 33.5,31.38 21.137,51.09" /><path
         id="path52"
         style="fill:#e9a584;fill-opacity:1;fill-rule:nonzero;stroke:none"
         d="m 6028.47,2830.82 c 12.63,8.76 31.65,15.63 52.15,18.85 16.99,2.67 34.03,2.73 49.27,0.16 23.04,-3.87 40.99,-13.25 53.35,-27.88 5.66,-6.69 12.64,-17.08 13.83,-28.62 0.22,-2.04 0.22,-4.07 0.01,-6.02 -1.19,-11.26 -9.3,-19.6 -15.9,-24.61 -27.6,-20.95 -64.81,-10.03 -96.52,-11.9 -27.8,-1.64 -51.59,-25.93 -65.22,10.8 -4.38,11.79 -7.25,24.15 -8.48,36.67 -0.88,8.89 0.32,20.63 17.51,32.55 z m -43.4,-35.1 c 2.64,-26.84 11.69,-53.03 26.16,-75.78 3.52,-5.52 7.73,-11.14 13.92,-13.27 10.69,-3.67 21.37,4.4 31.14,10.11 19.65,11.49 42.61,13.68 64.41,7.99 39.75,-10.37 97.61,15.98 102.25,59.81 0.39,3.7 0.4,7.51 -0.01,11.44 -1.64,15.85 -9.54,30.54 -19.83,42.72 -30.57,36.17 -82.05,43.61 -126.53,36.63 -40.8,-6.41 -96.51,-28.85 -91.51,-79.65" /><path
         id="path54"
         style="fill:#e9a584;fill-opacity:1;fill-rule:nonzero;stroke:none"
         d="m 5860.27,2611.32 c 12.64,8.76 31.64,15.63 52.15,18.86 16.99,2.66 34.04,2.72 49.28,0.16 23.03,-3.88 40.99,-13.26 53.35,-27.89 5.64,-6.68 12.63,-17.07 13.83,-28.61 0.21,-2.05 0.21,-4.07 0.01,-6.02 -1.19,-11.27 -9.31,-19.6 -15.9,-24.62 -27.6,-20.95 -64.82,-10.03 -96.53,-11.9 -27.81,-1.64 -51.59,-25.93 -65.22,10.8 -4.37,11.8 -7.25,24.15 -8.48,36.67 -0.88,8.9 0.33,20.63 17.51,32.55 z m -43.39,-35.1 c 2.64,-26.84 11.68,-53.03 26.16,-75.78 3.5,-5.51 7.73,-11.14 13.91,-13.26 10.7,-3.68 21.38,4.39 31.14,10.1 19.65,11.49 42.6,13.68 64.42,7.99 39.74,-10.36 97.61,15.98 102.24,59.82 0.39,3.69 0.41,7.5 0,11.43 -1.64,15.85 -9.54,30.54 -19.84,42.71 -30.57,36.19 -82.04,43.63 -126.52,36.64 -40.8,-6.41 -96.51,-28.84 -91.51,-79.65" /><path
         id="path56"
         style="fill:#e9a584;fill-opacity:1;fill-rule:nonzero;stroke:none"
         d="m 6160.07,2467.24 c 12.64,8.76 31.64,15.63 52.14,18.85 16.99,2.67 34.03,2.73 49.27,0.16 23.04,-3.87 40.99,-13.25 53.35,-27.88 5.66,-6.69 12.64,-17.08 13.83,-28.61 0.22,-2.05 0.22,-4.08 0.01,-6.03 -1.19,-11.26 -9.29,-19.6 -15.9,-24.61 -27.59,-20.96 -64.81,-10.04 -96.52,-11.9 -27.8,-1.64 -51.59,-25.93 -65.21,10.8 -4.38,11.79 -7.26,24.15 -8.49,36.67 -0.88,8.89 0.32,20.62 17.52,32.55 z m -43.41,-35.1 c 2.65,-26.85 11.69,-53.03 26.16,-75.78 3.52,-5.52 7.74,-11.15 13.92,-13.26 10.69,-3.69 21.38,4.39 31.14,10.09 19.65,11.5 42.61,13.68 64.41,8 39.75,-10.37 97.61,15.98 102.25,59.82 0.39,3.69 0.4,7.5 -0.01,11.42 -1.64,15.85 -9.54,30.55 -19.83,42.73 -30.57,36.17 -82.04,43.61 -126.53,36.62 -40.79,-6.4 -96.51,-28.84 -91.51,-79.64" /><path
         id="path58"
         style="fill:#e9a584;fill-opacity:1;fill-rule:nonzero;stroke:none"
         d="m 6171.83,2648.88 c 6.66,4.61 16.67,8.23 27.48,9.93 8.95,1.41 17.94,1.44 25.96,0.09 12.14,-2.04 21.61,-6.99 28.13,-14.7 2.97,-3.53 6.65,-9 7.28,-15.08 0.11,-1.08 0.11,-2.15 0,-3.17 -0.62,-5.94 -4.9,-10.33 -8.38,-12.98 -14.54,-11.04 -34.16,-5.28 -50.86,-6.27 -14.66,-0.86 -27.19,-13.66 -34.38,5.69 -2.3,6.22 -3.82,12.73 -4.47,19.33 -0.46,4.69 0.17,10.87 9.24,17.16 z m -22.87,-18.5 c 1.38,-14.15 6.15,-27.95 13.77,-39.95 1.86,-2.9 4.09,-5.86 7.34,-6.98 5.63,-1.94 11.27,2.31 16.41,5.32 10.37,6.06 22.46,7.21 33.95,4.21 20.95,-5.46 51.45,8.42 53.89,31.53 0.2,1.94 0.21,3.95 0,6.02 -0.87,8.36 -5.03,16.1 -10.45,22.52 -16.12,19.06 -43.24,22.99 -66.69,19.3 -21.51,-3.38 -50.86,-15.2 -48.22,-41.97" /><path
         id="path60"
         style="fill:#e9a584;fill-opacity:1;fill-rule:nonzero;stroke:none"
         d="m 5827.54,2772.78 c 6.66,4.61 16.67,8.24 27.48,9.93 8.95,1.41 17.94,1.44 25.97,0.09 12.14,-2.04 21.6,-6.98 28.12,-14.7 2.97,-3.52 6.65,-9 7.29,-15.08 0.1,-1.08 0.1,-2.15 0,-3.17 -0.63,-5.94 -4.91,-10.33 -8.38,-12.98 -14.54,-11.04 -34.16,-5.28 -50.87,-6.27 -14.66,-0.86 -27.19,-13.66 -34.38,5.69 -2.3,6.22 -3.81,12.73 -4.47,19.33 -0.46,4.69 0.18,10.87 9.24,17.16 z m -22.88,-18.5 c 1.39,-14.15 6.16,-27.95 13.79,-39.94 1.85,-2.91 4.08,-5.87 7.33,-6.99 5.64,-1.94 11.27,2.31 16.42,5.32 10.36,6.06 22.45,7.21 33.94,4.21 20.95,-5.46 51.45,8.42 53.89,31.53 0.2,1.95 0.21,3.95 0,6.02 -0.87,8.36 -5.03,16.1 -10.45,22.52 -16.11,19.07 -43.24,22.99 -66.69,19.3 -21.5,-3.37 -50.87,-15.2 -48.23,-41.97" /><path
         id="path62"
         style="fill:#e9a584;fill-opacity:1;fill-rule:nonzero;stroke:none"
         d="m 5963.75,2441.14 c 6.66,4.62 16.68,8.24 27.49,9.94 8.96,1.41 17.93,1.44 25.97,0.09 12.14,-2.04 21.6,-6.99 28.11,-14.7 2.98,-3.52 6.66,-9 7.3,-15.08 0.1,-1.08 0.1,-2.14 0,-3.18 -0.63,-5.92 -4.91,-10.32 -8.38,-12.97 -14.54,-11.04 -34.16,-5.28 -50.87,-6.27 -14.66,-0.86 -27.2,-13.67 -34.38,5.7 -2.3,6.21 -3.81,12.72 -4.47,19.32 -0.46,4.69 0.18,10.87 9.23,17.15 z m -22.87,-18.49 c 1.4,-14.15 6.16,-27.95 13.79,-39.94 1.84,-2.91 4.07,-5.87 7.33,-7 5.64,-1.93 11.27,2.33 16.42,5.33 10.35,6.06 22.45,7.21 33.94,4.21 20.95,-5.46 51.45,8.42 53.89,31.53 0.21,1.94 0.21,3.95 0,6.02 -0.87,8.36 -5.03,16.11 -10.46,22.52 -16.11,19.06 -43.23,22.99 -66.68,19.31 -21.5,-3.38 -50.87,-15.21 -48.23,-41.98" /><path
         id="path64"
         style="fill:#83a48f;fill-opacity:1;fill-rule:nonzero;stroke:none"
         d="m 4612.94,5026.14 c 1.72,-79.96 -23.04,-182.14 -67.94,-280.3 -37.21,-81.38 -85.88,-155.45 -140.75,-214.2 -82.94,-88.8 -175.18,-139.72 -274.16,-151.35 -45.2,-5.31 -110.31,-5.77 -163.8,22.17 -9.47,4.96 -18.28,10.76 -26.14,17.25 -45.44,37.51 -58.31,96.62 -61.1,139.62 -11.67,179.85 142.55,309.94 225.49,452.84 72.74,125.32 35.66,298.22 234.08,251.88 63.72,-14.88 125.58,-37.88 183.43,-68.49 41.08,-21.73 88.54,-60.63 90.89,-169.42 z m -27.64,289 c -124.03,65.6 -263.56,101.56 -403.81,104.1 -33.99,0.62 -70.52,-1.54 -97.48,-22.25 -46.64,-35.82 -42.3,-105.36 -45.57,-164.08 -6.58,-118.25 -62.99,-224.08 -150.29,-302.36 -159.06,-142.6 -210.95,-469.24 -34.1,-615.19 14.9,-12.29 31.4,-23.29 49.59,-32.8 73.48,-38.38 159.9,-46.29 242.23,-36.62 244.71,28.73 424.75,230.61 522.16,443.63 89.33,195.34 152,501.41 -82.73,625.57" /><path
         id="path66"
         style="fill:#576c61;fill-opacity:1;fill-rule:nonzero;stroke:none"
         d="m 4451.06,4948.14 c 0.86,-39.8 -11.47,-90.66 -33.81,-139.53 -18.53,-40.51 -42.76,-77.38 -70.07,-106.63 -41.29,-44.21 -87.21,-69.55 -136.48,-75.34 -22.5,-2.64 -54.92,-2.87 -81.54,11.04 -4.72,2.46 -9.1,5.35 -13.02,8.58 -22.61,18.67 -29.02,48.1 -30.41,69.51 -5.81,89.52 70.96,154.28 112.25,225.42 36.21,62.38 17.75,148.46 116.53,125.39 31.72,-7.41 62.51,-18.86 91.31,-34.1 20.45,-10.82 44.07,-30.18 45.24,-84.34 z m -13.76,143.87 c -61.74,32.66 -131.2,50.56 -201.01,51.82 -16.92,0.31 -35.11,-0.77 -48.53,-11.08 -23.22,-17.83 -21.06,-52.44 -22.68,-81.68 -3.28,-58.86 -31.36,-111.54 -74.82,-150.51 -79.19,-70.99 -105.01,-233.59 -16.97,-306.25 7.41,-6.11 15.63,-11.59 24.69,-16.32 36.57,-19.11 79.59,-23.05 120.57,-18.23 121.82,14.3 211.45,114.79 259.94,220.84 44.47,97.24 75.66,249.61 -41.19,311.41" /><path
         id="path68"
         style="fill:#576c61;fill-opacity:1;fill-rule:nonzero;stroke:none"
         d="m 1455.79,3302.99 c -25.81,-75.7 -84.11,-163.18 -159.95,-240 -62.86,-63.68 -133.98,-116.56 -205.68,-152.94 -108.359,-54.97 -212.461,-71.17 -309.43,-48.14 -44.281,10.52 -105.597,32.41 -146.265,77 -7.199,7.91 -13.481,16.37 -18.637,25.16 -29.82,50.82 -21.64,110.76 -9.515,152.11 50.718,172.95 240.203,242.26 367.121,348.05 111.296,92.77 135.766,267.91 306.266,156.33 54.76,-35.84 104.97,-78.66 148.82,-127.25 31.13,-34.5 62.37,-87.32 27.27,-190.32 z m 73.15,280.97 c -94.02,104.15 -212.75,185.78 -343.62,236.26 -31.72,12.24 -66.77,22.73 -99.2,12.53 -56.1,-17.66 -75.87,-84.46 -99.085,-138.5 -46.738,-108.82 -136.012,-188.89 -244.863,-232.48 -198.32,-79.41 -359.074,-368.44 -243,-566.19 9.766,-16.65 21.496,-32.65 35.332,-47.82 55.851,-61.26 134.32,-98.32 214.973,-117.47 239.718,-56.93 478.073,70.96 642.633,237.65 150.91,152.87 314.74,418.88 136.83,616.02" /><path
         id="path70"
         style="fill:#576c61;fill-opacity:1;fill-rule:nonzero;stroke:none"
         d="m 1276.98,3285.24 c -12.84,-37.68 -41.87,-81.23 -79.62,-119.47 -31.3,-31.7 -66.7,-58.03 -102.39,-76.14 -53.94,-27.36 -105.759,-35.43 -154.032,-23.96 -22.047,5.23 -52.571,16.13 -72.813,38.33 -3.582,3.93 -6.707,8.15 -9.277,12.53 -14.848,25.29 -10.774,55.13 -4.739,75.72 25.25,86.09 119.575,120.59 182.761,173.26 55.4,46.18 67.58,133.36 152.46,77.82 27.25,-17.84 52.25,-39.16 74.08,-63.35 15.5,-17.17 31.05,-43.46 13.57,-94.74 z m 36.42,139.87 c -46.8,51.84 -105.91,92.48 -171.06,117.61 -15.79,6.09 -33.24,11.32 -49.38,6.24 -27.93,-8.79 -37.77,-42.05 -49.32,-68.95 -23.27,-54.17 -67.71,-94.03 -121.898,-115.73 -98.722,-39.53 -178.75,-183.41 -120.972,-281.85 4.867,-8.29 10.707,-16.25 17.589,-23.8 27.809,-30.5 66.868,-48.95 107.016,-58.48 119.335,-28.34 237.985,35.32 319.905,118.3 75.13,76.1 156.68,208.52 68.12,306.66" /><path
         id="path72"
         style="fill:#576c61;fill-opacity:1;fill-rule:nonzero;stroke:none"
         d="m 3233.96,734.289 c 55.61,57.492 145.62,111.793 246.96,148.973 84.01,30.828 170.88,48.367 251.24,50.718 121.45,3.571 222.54,-26.14 300.45,-88.289 35.58,-28.382 81.73,-74.312 99.52,-131.98 3.14,-10.211 5.21,-20.563 6.13,-30.699 5.33,-58.68 -27.61,-109.43 -56.2,-141.672 -119.57,-134.852 -320.53,-116.82 -480.42,-158.449 -140.22,-36.5 -236.98,-184.52 -343.69,-10.93 -34.27,55.75 -61.45,115.891 -80.41,178.539 -13.46,44.469 -19.22,105.559 56.42,183.789 z M 3048.07,511.281 c 40.67,-134.289 113.3,-258.73 210.19,-360.172 23.48,-24.578 50.72,-49.007 84.41,-53.5895 58.27,-7.9297 104.62,44.0825 148.65,83.0825 88.65,78.527 203.53,112.929 320.57,105.98 213.27,-12.66 481.85,180.316 461.1,408.68 -1.74,19.218 -5.54,38.699 -11.59,58.308 -24.43,79.219 -79.62,146.192 -144.43,197.891 -192.61,153.639 -462.74,139.499 -682.64,58.809 -201.66,-73.989 -463.22,-244.84 -386.26,-498.989" /><path
         id="path74"
         style="fill:#576c61;fill-opacity:1;fill-rule:nonzero;stroke:none"
         d="m 3403.29,674.16 c 27.68,28.621 72.49,55.649 122.94,74.16 41.81,15.34 85.06,24.071 125.06,25.25 60.46,1.77 110.78,-13.011 149.57,-43.949 17.7,-14.129 40.68,-36.992 49.54,-65.699 1.56,-5.09 2.6,-10.242 3.06,-15.293 2.64,-29.207 -13.75,-54.469 -27.99,-70.52 -59.52,-67.117 -159.56,-58.148 -239.16,-78.867 -69.8,-18.183 -117.97,-91.863 -171.08,-5.441 -17.06,27.75 -30.59,57.679 -40.03,88.871 -6.7,22.129 -9.57,52.547 28.09,91.488 z m -92.54,-111.019 c 20.25,-66.84 56.4,-128.789 104.63,-179.282 11.69,-12.238 25.25,-24.41 42.02,-26.687 29.01,-3.953 52.08,21.949 74,41.367 44.13,39.09 101.32,56.211 159.59,52.75 106.16,-6.301 239.86,89.762 229.53,203.453 -0.87,9.567 -2.76,19.246 -5.77,29.02 -12.16,39.429 -39.63,72.769 -71.9,98.508 -95.88,76.48 -230.35,69.441 -339.82,29.269 -100.39,-36.82 -230.59,-121.879 -192.28,-248.398" /><path
         id="path76"
         style="fill:#ede2c7;fill-opacity:1;fill-rule:nonzero;stroke:none"
         d="M -267.055,586.07 C -229.547,710.09 -124.297,799.102 43.2578,818.23 193.801,835.43 326.426,754.449 419.41,641.488 521.855,517.051 645.641,404.879 800.805,352.75 901.285,319 1065.03,328.879 1128.71,232.039 1217.84,96.4609 1047.68,-22.8398 951.918,-92.5703 809.629,-196.168 652.484,-269.949 473.098,-269.988 124.43,-270.07 -148.063,-4.35156 -254.203,313.539 c -33.098,99.113 -36.902,193.012 -12.852,272.531" /><path
         id="path78"
         style="fill:#e9a584;fill-opacity:1;fill-rule:nonzero;stroke:none"
         d="M 1548.42,9.28125 C 1472.19,-65.0391 1350.31,-133.781 1214.02,-179.301 c -112.97,-37.73 -229.239,-57.679 -336.25,-57.679 -161.735,0 -295.067,43.46 -396.305,129.199 -46.231,39.1521 -105.84,102.07006 -127.254,179.4919 -3.789,13.711 -6.141,27.5508 -6.969,41.0781 -4.804,78.281 41.012,144.512 80.309,186.301 164.351,174.75 431.012,142.91 645.389,192.058 187.98,43.114 322.5,236.262 457.69,1.141 43.43,-75.519 77.25,-156.59 100.03,-240.68 16.18,-59.699 21.46,-141.211 -82.24,-242.32775 z M 1804.46,298.738 c -48.88,180.25 -140.67,348.66 -265.62,487.403 -30.28,33.629 -65.57,67.199 -110.21,74.609 -77.22,12.82 -140.92,-54.57 -201.02,-104.738 C 1106.6,654.98 952.402,613.699 796.938,627.5 513.695,652.68 148.813,406.391 167.512,101.742 c 1.57,-25.6404 5.855,-51.6912 13.14,-78.0428 29.414,-106.3476 100.239,-197.5972 184.45,-268.9102 250.273,-211.93 610.23,-203.668 905.958,-104.891 271.19,90.582 625.87,307.6918 533.4,648.84" /><path
         id="path80"
         style="fill:#576c61;fill-opacity:1;fill-rule:nonzero;stroke:none"
         d="m 1844.46,368.379 c 12.53,-46.207 17.61,-94.547 13.48,-142.32 -3.63,-47.868 -18.34,-94.411 -39.34,-137.4106 -21.33,-43 -50.2,-81.88668 -82.55,-117.1875 -32.71,-35.0898 -69.38,-66.3086 -108.1,-94.5629 -77.81,-56.109 -163.69,-100.457 -252.85,-135.558 -89.23,-35.129 -182.34,-60.289 -276.98,-75.738 -94.62,-15.582 -191.378,-19.493 -286.874,-9.27 -47.863,4.277 -94.973,14.469 -141.449,26.5 -11.582,3.168 -22.879,7.328 -34.332,10.938 l -17.125,5.621 -8.559,2.82 -8.32,3.461 c -22.012,9.617 -44.816,17.558 -65.758,29.5 l -31.996,16.64 c -10.285,6.208 -20.332,12.829 -30.516,19.227 -20.82,12.152 -39.375,27.551 -58.503,42.133 -37.985,29.5 -72.012,63.957 -102.571,101.1288 -30.429,37.289 -56.179,78.57811 -75.379,122.8789 -19.023,44.2695 -31.402,91.8903 -33.105,140.3003 -4.535,97.2 31.949,193 90.387,269.149 14.246,19.453 30.468,37.32 46.96,54.832 17.079,16.969 34.583,33.527 53.411,48.519 37.328,30.34 77.75,56.891 120.613,78.68 85.422,43.711 180.223,71.391 276.652,72.399 l 18.047,-0.028 18.016,-1.062 35.801,-2.367 c 23.839,-0.981 47.742,-1.172 71.554,0.488 47.621,2.961 95.006,11.129 140.546,25.512 45.59,14.117 89.51,33.82 129.92,59.289 l 15.13,9.578 14.63,10.332 c 9.94,6.64 18.98,14.48 28.45,21.738 18.54,15.082 36.26,31.223 54.8,46.453 18.53,15.18 37.63,29.977 58.82,41.469 21.04,11.461 44.38,20.16 68.71,20.437 3.02,0.012 6.05,0.204 9.06,0.051 l 9.02,-0.949 c 3.02,-0.23 6.01,-0.668 8.95,-1.379 2.98,-0.531 5.9,-1.312 8.79,-2.18 11.62,-3.351 22.67,-8.461 32.98,-14.691 20.66,-12.512 38.32,-29.18 54.74,-46.578 129.81,-141.152 224.94,-313.781 274.84,-498.793 z m 0,0 c -50.5,184.84 -146.16,357.031 -276.19,497.5 -16.43,17.301 -34.03,33.793 -54.48,46.07 -10.2,6.121 -21.08,11.11 -32.5,14.36 -2.84,0.839 -5.71,1.601 -8.63,2.113 -2.89,0.687 -5.82,1.098 -8.78,1.316 l -8.85,0.903 c -2.95,0.129 -5.92,-0.059 -8.89,-0.071 -23.84,-0.359 -46.76,-8.961 -67.53,-20.359 -20.92,-11.43 -39.86,-26.191 -58.27,-41.391 -18.43,-15.23 -36.09,-31.422 -54.65,-46.621 -9.5,-7.347 -18.58,-15.25 -28.55,-21.969 l -14.68,-10.429 -15.18,-9.68 c -40.58,-25.75 -84.71,-45.73 -130.55,-60.082 -45.79,-14.629 -93.46,-23.008 -141.386,-26.148 -23.973,-1.75 -48.035,-1.629 -72.039,-0.731 l -35.895,2.262 -17.84,0.988 -17.871,-0.008 C 696.191,695.09 602.172,667.32 517.578,623.68 475.117,601.93 435.117,575.461 398.23,545.281 379.625,530.359 362.348,513.902 345.504,497.07 c -16.262,-17.39 -32.246,-35.109 -46.25,-54.359 -57.5,-75.449 -92.902,-169.719 -88.156,-264.902 1.601,-47.418 13.511,-94.1996 32.129,-137.8676 18.761,-43.66015 44.031,-84.5117 74.015,-121.5117 30.102,-36.8477 63.727,-71.1407 101.297,-100.5077 18.91,-14.5 37.242,-29.832 57.852,-41.942 10.07,-6.378 20.011,-12.98 30.187,-19.179 l 31.684,-16.602 c 20.726,-11.918 43.34,-19.847 65.156,-29.48 l 8.242,-3.469 8.496,-2.828 16.985,-5.633 c 11.367,-3.617 22.566,-7.797 34.058,-10.98 46.145,-12.098 92.942,-22.399 140.555,-26.797 94.98,-10.481 191.386,-6.922 285.776,8.308 94.41,15.102 187.39,39.891 276.54,74.641 89.09,34.738 174.95,78.73 252.78,134.469 38.72,28.0505 75.42,59.0895 108.17,93.9802 32.39,35.12886 61.32,73.8281 82.74,116.6601 21.09,42.8277 35.94,89.2387 39.72,137.0317 4.27,47.687 -0.64,96.027 -13.02,142.277" /><path
         id="path82"
         style="fill:#576c61;fill-opacity:1;fill-rule:nonzero;stroke:none"
         d="m 1588.42,78.9219 c 25.12,24.5701 47.74,52.0081 64.6,82.8871 17.15,30.632 26.67,65.671 26.04,100.781 -0.37,35.301 -11.78,69.14 -22.15,102.59 -10.83,33.429 -23.38,66.308 -37.63,98.429 -14.22,32.141 -30.11,63.532 -47.57,94.032 -17.32,30.441 -37.64,59.629 -63.91,82.769 -13.28,11.281 -28.13,20.828 -44.47,26.789 -16.29,6.031 -33.86,8.231 -51.2,7.121 -34.91,-2.289 -67.98,-15.91 -99.62,-30.672 -63.22,-30.007 -124.52,-66.789 -193.68,-83.777 C 1050.08,543.52 979.848,536.16 910.051,527.82 840.227,519.77 770.348,510.941 702.406,493.609 634.504,476.891 568.895,448.762 514.07,405.52 486.797,384 461.559,359.398 440.898,331.359 420.273,303.398 403.684,272.082 395.527,238.34 c -8.16,-33.649 -7.015,-69.391 3.567,-102.481 10.011,-33.32 27.293,-64.2106 48.14,-92.1598 42.157,-55.707 96.512,-102.3594 157.649,-136.3594 61.371,-33.9178 129.488,-54.6988 198.832,-64.8988 139.293,-19.73 282.015,-1.711 416.465,38.18 67.32,20.1993 132.96,46.1993 195.41,78.5392 62.31,32.37886 121.92,71.0586 172.83,119.7617 z m 0,0 C 1537.73,30 1478.24,-8.96875 1416.03,-41.668 c -62.36,-32.6523 -127.97,-58.973 -195.31,-79.492 -134.49,-40.551 -277.443,-59.309 -417.54,-40.098 -69.75,9.938 -138.461,30.547 -200.547,64.5002 -61.906,34.0898 -116.91,80.8281 -159.891,137.0976 -21.262,28.2618 -39.031,59.6211 -49.461,93.7422 -11.019,33.887 -12.414,71.027 -4.117,105.777 8.27,34.86 25.172,67.02 46.086,95.653 20.949,28.687 46.496,53.84 74.203,75.89 56.016,43.887 122.817,72.02 191.328,88.586 68.578,17.16 138.75,25.684 208.621,33.442 69.836,8.019 139.978,15.07 208.308,31.011 68.36,16.438 129.58,52.739 193.21,82.618 31.85,14.671 65.31,28.339 101.02,30.543 17.73,1.058 35.77,-1.27 52.45,-7.532 16.72,-6.179 31.83,-16.011 45.26,-27.519 26.55,-23.621 46.84,-53.121 64.1,-83.75 17.36,-30.653 33.15,-62.172 47.25,-94.43 14.13,-32.242 26.56,-65.23 37.25,-98.762 10.22,-33.507 21.53,-67.5 21.75,-103 0.47,-35.289 -9.25,-70.418 -26.56,-101.027 -17.04,-30.863 -39.79,-58.211 -65.02,-82.6601" /><path
         id="path84"
         style="fill:#576c61;fill-opacity:1;fill-rule:nonzero;stroke:none"
         d="m 7902.29,4126.82 c -53.79,-193.29 -213.69,-334.74 -472.45,-370.14 -232.48,-31.81 -440.61,88.99 -588.47,260.67 -162.91,189.15 -358.43,358.54 -600.47,433.9 -156.73,48.79 -409.91,27.86 -511.84,175.6 -142.67,206.83 116.66,397.41 262.52,508.67 216.73,165.32 457.5,284.96 735.24,291.2 539.83,12.15 970.88,-389.87 1146.18,-878.38 54.66,-152.3 63.78,-297.57 29.29,-421.52" /><path
         id="path86"
         style="fill:#fcebdb;fill-opacity:1;fill-rule:nonzero;stroke:none"
         d="m 7004.95,5541.23 c 106.2,-7.5 238.59,-52.81 363.22,-124.32 103.31,-59.27 195.54,-132.83 266.71,-212.75 107.56,-120.78 163.77,-249.26 167.07,-381.87 1.52,-60.57 -5.83,-146.93 -49.4,-214.41 -7.73,-11.95 -16.5,-22.91 -26.06,-32.53 -55.26,-55.65 -135.19,-65.48 -192.53,-63.92 -239.8,6.52 -393.37,226.83 -572.65,354.24 -157.21,111.72 -390.92,83.72 -305.24,341.05 27.52,82.65 65.57,161.82 113.22,234.76 33.83,51.79 91.18,109.94 235.66,99.75 z m -386.44,-1.3 c -102.1,-156.38 -166.83,-336.93 -187.35,-522.51 -4.97,-44.97 -6.57,-93.65 17.58,-131.92 41.79,-66.2 134.48,-68.95 211.91,-80.46 155.93,-23.19 289.31,-110.88 382.39,-236.17 169.58,-228.26 596.16,-336.96 811.24,-120.39 18.1,18.22 34.7,38.75 49.54,61.71 59.86,92.7 80.91,206.27 78.15,316.58 -8.17,327.86 -253.74,591.18 -524.18,746.34 -248,142.28 -646.01,262.76 -839.28,-33.18" /><path
         id="path88"
         style="fill:#576c61;fill-opacity:1;fill-rule:nonzero;stroke:none"
         d="m 6628.24,5486.29 c 26.17,40.09 58.9,76.04 97.32,104.73 38.16,29.12 82.7,49.08 128.78,62 46.29,12.66 94.54,16.97 142.42,16.3 47.96,-1.1 95.66,-7.73 142.5,-17.85 93.65,-20.79 183.89,-55.43 269.4,-98.67 85.57,-43.28 166.28,-96.09 240.76,-156.48 74.57,-60.31 141.83,-129.97 197.72,-208.08 28.63,-38.58 52.34,-80.54 74.28,-123.26 5.34,-10.75 9.74,-21.95 14.65,-32.91 l 7.2,-16.53 3.6,-8.26 2.93,-8.52 c 7.46,-22.84 16.69,-45.15 21.71,-68.72 l 8.85,-34.96 c 2.2,-11.81 3.94,-23.72 5.93,-35.58 4.77,-23.64 5.61,-47.73 7.45,-71.71 3.23,-47.99 0.13,-96.31 -7.3,-143.85 -7.62,-47.53 -21.33,-94.22 -41.65,-138.02 -20.41,-43.65 -47.73,-84.56 -82.76,-118.03 -69.57,-68.03 -165.37,-104.5 -261.11,-111.5 -24,-2.29 -48.13,-2.06 -72.18,-1.39 -24.02,1.47 -48.04,3.52 -71.75,7.61 -47.49,7.7 -94.2,20.23 -138.98,37.75 -89.45,34.72 -173.17,87.11 -238.05,158.45 l -11.97,13.5 -11.19,14.17 -22.04,28.31 c -15.13,18.45 -30.87,36.43 -47.95,53.11 -33.89,33.59 -71.51,63.55 -112.53,87.98 -40.86,24.66 -84.79,44.36 -130.69,57.6 l -17.21,4.92 -17.44,4.06 c -11.57,3.01 -23.43,4.56 -35.16,6.8 -23.59,3.81 -47.43,6.32 -71.13,10.04 -23.67,3.72 -47.42,8.15 -70.1,16.34 -22.54,8.09 -44.55,19.74 -60.95,37.71 -2.01,2.26 -4.17,4.4 -6.06,6.74 l -5.3,7.37 c -1.82,2.4 -3.49,4.92 -4.92,7.59 -1.58,2.59 -2.94,5.28 -4.22,8.02 -5.22,10.91 -8.75,22.56 -10.95,34.39 -4.41,23.75 -3.7,48.03 -1.62,71.88 19.08,190.8 84.73,376.64 189.71,536.95 z m 0,0 c -104.45,-160.64 -169.42,-346.59 -187.85,-537.12 -2,-23.76 -2.61,-47.88 1.82,-71.32 2.21,-11.68 5.73,-23.13 10.9,-33.81 1.26,-2.69 2.59,-5.33 4.16,-7.86 1.4,-2.62 3.04,-5.08 4.86,-7.43 l 5.2,-7.21 c 1.87,-2.3 3.99,-4.39 5.97,-6.59 16.11,-17.57 37.78,-28.96 60.11,-36.89 22.45,-8.02 46.07,-12.36 69.67,-15.99 23.63,-3.64 47.46,-6.06 71.17,-9.81 11.79,-2.21 23.73,-3.74 35.37,-6.71 l 17.56,-4.03 17.33,-4.9 c 46.21,-13.17 90.48,-32.85 131.69,-57.53 41.38,-24.46 79.34,-54.5 113.57,-88.2 17.24,-16.74 33.15,-34.78 48.44,-53.32 l 22.18,-28.3 11.13,-13.98 11.9,-13.34 c 64.49,-70.45 147.75,-122.2 236.6,-156.36 44.49,-17.23 90.86,-29.5 137.93,-36.98 23.51,-3.98 47.29,-5.93 71.06,-7.32 23.8,-0.57 47.67,-0.73 71.36,1.62 94.59,7.23 188.54,43.49 256.46,110.34 34.34,32.73 61.35,72.73 81.59,115.68 20.12,43.05 33.83,89.08 41.52,136.08 7.5,46.99 10.75,94.91 7.69,142.49 -1.74,23.77 -2.48,47.66 -7.15,71.11 -1.94,11.76 -3.61,23.57 -5.75,35.29 l -8.68,34.71 c -4.89,23.4 -14,45.56 -21.31,68.26 l -2.89,8.47 -3.55,8.21 -7.09,16.43 c -4.84,10.9 -9.18,22.05 -14.44,32.75 -21.66,42.5 -45.09,84.3 -73.46,122.78 -55.35,77.9 -122.12,147.53 -196.27,207.9 -74.06,60.46 -154.41,113.41 -239.66,156.88 -85.18,43.42 -175.13,78.28 -268.52,99.34 -46.71,10.26 -94.29,17.03 -142.13,18.28 -47.77,0.82 -95.92,-3.32 -142.15,-15.8 -46.01,-12.73 -90.54,-32.51 -128.75,-61.47 -38.46,-28.53 -71.28,-64.34 -97.59,-104.35" /><path
         id="path90"
         style="fill:#576c61;fill-opacity:1;fill-rule:nonzero;stroke:none"
         d="m 7014.69,5487.59 c -35.06,2.43 -70.6,1.06 -104.87,-6.87 -34.28,-7.57 -66.78,-23.77 -92.57,-47.59 -26.13,-23.75 -43.8,-54.78 -61.89,-84.77 -17.77,-30.32 -33.97,-61.56 -48.48,-93.56 -14.56,-32 -27.43,-64.74 -38.58,-98.06 -11.22,-33.18 -19.5,-67.76 -19.33,-102.78 0.41,-17.41 3.16,-34.85 9.57,-51.01 6.34,-16.18 16.38,-30.77 28.75,-42.97 24.93,-24.56 57.09,-40.19 89.16,-54.01 64.45,-27.26 132.69,-48.57 191.36,-88.93 57.94,-40.45 110.14,-88.02 162.79,-134.59 52.46,-46.79 105.51,-93.11 163.64,-132.32 57.64,-39.59 122.29,-69.88 191.03,-82.06 34.21,-6.06 69.37,-8.55 104.06,-5.33 34.6,3.19 69.02,11.64 99.63,27.98 30.57,16.29 56.5,40.91 74.17,70.82 18.22,29.63 29.79,63.09 36.8,97.24 13.58,68.53 12.27,140.15 -3.01,208.42 -15.48,68.39 -45.26,133.08 -83.77,191.65 -77.9,117.15 -186.27,211.75 -305.48,285.62 -59.85,36.84 -122.92,68.57 -188.61,93.7 -65.62,24.99 -134.16,43.79 -204.37,49.42 z m 0,0 c 70.24,-5.32 138.91,-23.82 204.7,-48.55 65.85,-24.86 129.15,-56.34 189.25,-92.98 119.73,-73.47 228.81,-167.76 307.64,-285.15 38.96,-58.71 69.27,-123.72 85.19,-192.67 15.72,-68.9 17.4,-141.06 3.96,-210.58 -6.96,-34.67 -18.57,-68.8 -37.11,-99.28 -17.98,-30.77 -44.78,-56.5 -76.26,-73.42 -31.52,-17.01 -66.8,-25.78 -102.08,-29.2 -35.36,-3.44 -71.12,-1.08 -106.02,4.95 -70.03,12.63 -135.46,43.82 -193.4,83.96 -58.43,39.8 -111.46,86.54 -163.72,133.57 -52.44,46.81 -104.34,94.51 -161.69,134.93 -57.75,40.12 -125.57,61.71 -190.2,89.35 -32.14,14.03 -64.6,29.92 -89.99,55.13 -12.58,12.53 -22.84,27.56 -29.26,44.17 -6.5,16.6 -9.21,34.42 -9.55,52.11 -0.02,35.53 8.52,70.3 19.92,103.57 11.33,33.34 24.38,66.09 39.09,98.08 14.68,31.99 31.05,63.21 48.99,93.5 18.22,29.92 36.09,60.97 62.45,84.74 26.04,23.82 58.74,39.93 93.12,47.36 34.36,7.79 69.93,9 104.97,6.41" /><path
         id="path92"
         style="fill:#e9a584;fill-opacity:1;fill-rule:nonzero;stroke:none"
         d="m 5299.98,4254.17 c -121.08,53.82 -179.2,193.02 -133.85,317.52 105.6,289.81 357.44,763.86 852.35,651.38 658.88,-149.75 240.73,-1395.26 -718.5,-968.9" /><path
         id="path94"
         style="fill:#576c61;fill-opacity:1;fill-rule:nonzero;stroke:none"
         d="m 5273.32,4200.84 c 67.64,-29.73 137.99,-53.48 210.19,-69.12 72.24,-15.01 146.49,-22.01 220.14,-16.51 73.64,4.87 146.39,22.34 214.1,51.52 67.77,29.15 129.84,70.94 183.41,121.47 53.63,50.54 98.44,110.31 132.56,175.56 34.14,65.22 57.87,136 68.53,208.8 10.59,72.67 8.01,147.75 -12.13,218.4 -19.78,70.6 -59.28,135.75 -114.44,183.92 -54.82,48.78 -124.17,79.26 -195.98,93.87 -71.88,14.88 -146.49,20.14 -219.17,8.18 -36.44,-5.07 -72.07,-14.99 -106.54,-27.68 -34.67,-12.35 -67.5,-29.41 -99,-48.36 -62.9,-38.35 -118.53,-88.01 -167.18,-143.32 -97.38,-111.2 -168.53,-243.07 -224.39,-379.49 -6.9,-17.13 -13.65,-34.31 -20.06,-51.64 -6.55,-17.27 -11.65,-34.98 -14.96,-53.12 -6.39,-36.33 -3.99,-74 5.67,-109.53 18.66,-71.64 71.87,-132.64 139.25,-162.95 z m 0,0 c -67.51,30.02 -121.11,90.88 -140.15,162.7 -9.85,35.62 -12.42,73.46 -6.16,110.01 3.25,18.24 8.33,36.14 14.82,53.46 6.33,17.37 13.03,34.59 19.86,51.77 27.63,68.56 59.1,135.68 95.94,199.85 36.72,64.18 78.64,125.62 127.38,181.4 48.61,55.75 104.32,105.92 167.54,144.85 31.65,19.22 64.69,36.57 99.64,49.19 34.73,12.95 70.69,23.11 107.47,28.39 73.4,12.4 148.8,7.4 221.38,-7.3 72.67,-14.48 143.43,-45.12 199.59,-94.67 56.17,-49.33 96.05,-116.02 115.83,-187.72 20.13,-71.8 22.37,-147.73 11.36,-221.04 -11.06,-73.43 -35.29,-144.64 -69.94,-210.16 -34.63,-65.56 -79.98,-125.5 -134.14,-176.11 -54.09,-50.59 -116.67,-92.33 -184.87,-121.32 -68.14,-29.02 -141.23,-46.24 -215.09,-50.81 -73.88,-5.19 -148.22,2.14 -220.47,17.47 -72.22,15.96 -142.48,40.03 -209.99,70.04" /><path
         id="path96"
         style="fill:#e9a584;fill-opacity:1;fill-rule:nonzero;stroke:none"
         d="m -416.773,1508.96 c 0,0 920.336,-269.96 993.226,794.94 21.668,316.56 61.746,776.65 344.942,979.91 175.095,125.67 345.425,71.64 535.195,22.59 216.45,-55.95 488.66,-75.32 697.56,36.09 454.17,242.19 194.74,808.56 346.11,1192.51 66.16,167.82 221.85,242.04 390.24,270.96 191.12,32.81 385.29,-40.98 570.65,1.85 239.92,55.44 232.96,309.76 232.96,506.99 H -416.773 V 1508.96" /><path
         id="path98"
         style="fill:#83a48f;fill-opacity:1;fill-rule:nonzero;stroke:none"
         d="M 1094.08,1634.47 C 1072.59,1816.09 284.137,1578.49 63.2773,1508.22 263.238,1574.48 917.18,1803.8 842.465,1945.67 769.438,2084.36 217.93,1659.11 52.8906,1527.4 231.82,1673.71 857.938,2202.48 717.152,2325.75 579.418,2446.35 152.34,1740.32 35.8945,1541.04 138.402,1721.38 464.543,2318.96 316.609,2373.34 172.117,2426.45 49.5586,1754.25 15.625,1548.55 c 34.8164,227.99 145.852,1040.84 -41.3516,1038.1 -212.7184,-3.13 32.01957,-1096.9 32.01957,-1096.9 0,0 1113.37703,-71.53 1087.78703,144.72" /><path
         id="path100"
         style="fill:#ede2c7;fill-opacity:1;fill-rule:nonzero;stroke:none"
         d="m 509.457,4475.51 c -9.09,6.89 -15.785,15.82 -18.184,27.45 -3.343,16.23 3.399,32.74 11.071,47.43 117.25,224.55 397.09,222.13 614.106,190.69 190.55,-27.6 383.8,-24.28 568.23,32.2 131.43,40.24 220.76,58.67 339.4,-28.69 213.07,-156.9 165.93,-573.59 52.22,-771.56 -17.12,-29.8 -37.79,-59.4 -68.18,-75.47 -54.26,-28.68 -121.94,-5.62 -172.56,29.1 -184.74,126.73 -368.64,249.63 -572.9,345.18 -219.18,102.54 -456.777,143.83 -693.972,182.5 -20.375,3.32 -43.43,9.18 -59.231,21.17" /><path
         id="path102"
         style="fill:#576c61;fill-opacity:1;fill-rule:nonzero;stroke:none"
         d="m -193.992,1074.17 c 66.496,-12.86 133.9764,-20.24 201.54669,-24.23 67.58591,-3.76 135.44131,-3.72 202.91831,1.61 67.418,5.5 134.64,15.52 199.91,33.36 65.222,17.62 128.773,42.49 186.672,77.35 58.226,34.22 109.855,79.4 151.566,132.42 20.484,26.82 38.367,55.53 53.805,85.53 15.051,30.21 27.269,61.73 37.304,93.96 19.29,64.73 28.473,132.18 30.754,199.65 2.219,67.55 -2.632,135.23 -12.046,202.16 -18.985,134 -55.18,264.97 -98.692,393.04 -43.297,128.4 -83.453,257.88 -118.871,388.71 -34.977,130.93 -64.367,263.52 -83.863,397.76 -2.852,16.72 -4.77,33.57 -6.59,50.43 l -5.727,50.56 c -2.238,16.82 -2.586,33.82 -3.968,50.73 -1.063,16.93 -2.45,33.84 -3.247,50.78 l -0.816,50.92 -0.402,25.45 1.004,25.45 2.144,50.9 5.395,50.7 c 8.8,67.29 23.23,134.33 49,197.54 25.976,62.95 62.773,121.73 110.09,170.85 47.152,49.32 104.109,88.55 165.144,118.38 61.121,29.94 126.113,51.09 192.061,67.03 132.37,31.08 268.31,41.42 403.54,47.22 33.7,2.32 67.48,3.85 100.89,9.09 33.66,3.41 66.61,11.06 99.81,17.31 65.7,15.72 130.03,37.06 191.54,65.02 61.33,28.37 119.09,64.18 172.26,105.73 53.04,41.69 101.6,89.46 142.49,143.28 41.15,53.55 75.75,112.08 103.03,173.86 l 9.87,23.34 c 3.32,7.77 6.72,15.51 9.24,23.58 l 16.39,47.95 13.19,48.94 c 4.19,16.36 6.83,33.08 10.35,49.6 12.05,66.5 16.77,134.26 14.85,201.87 -2.47,67.63 -12.42,134.81 -27.59,200.71 l -12.55,49.18 -15.44,48.36 c -4.76,16.25 -11.28,31.89 -17.34,47.68 -6.34,15.7 -11.67,31.81 -19.13,47.02 l -21.09,46.19 c -7.33,15.25 -15.65,30.01 -23.43,45.05 l -11.86,22.45 c -4.18,7.36 -8.68,14.53 -13.01,21.81 l -26.22,43.5 26.41,-43.39 c 4.37,-7.26 8.91,-14.41 13.12,-21.75 l 11.97,-22.4 c 7.84,-15.01 16.24,-29.74 23.64,-44.97 l 21.31,-46.12 c 7.54,-15.19 12.94,-31.3 19.35,-46.97 6.15,-15.78 12.74,-31.41 17.58,-47.66 l 15.68,-48.35 12.79,-49.2 c 15.5,-65.94 25.79,-133.23 28.56,-201.04 2.24,-67.79 -2.19,-135.8 -13.99,-202.62 -3.44,-16.61 -6.09,-33.41 -10.26,-49.85 l -13.18,-49.17 -16.38,-48.19 c -2.53,-8.11 -5.93,-15.89 -9.25,-23.71 l -9.88,-23.46 c -27.32,-62.12 -62,-121 -103.29,-174.9 -41.01,-54.16 -89.76,-102.29 -143.03,-144.29 -53.41,-41.87 -111.44,-77.96 -173.06,-106.58 -61.81,-28.21 -126.44,-49.77 -192.46,-65.67 -33.34,-6.34 -66.46,-14.07 -100.27,-17.55 -33.57,-5.32 -67.5,-6.91 -101.36,-9.29 -135.12,-6 -270.66,-16.55 -402.34,-47.69 -65.581,-15.96 -130.101,-37.08 -190.609,-66.84 -60.433,-29.65 -116.625,-68.52 -163.07,-117.25 C 662.258,3776.5 626.055,3718.49 600.469,3656.23 575.09,3593.72 560.93,3527.27 552.23,3460.48 l -5.437,-50.31 -2.203,-50.6 -1.043,-25.3 0.363,-25.33 0.735,-50.66 c 0.769,-16.87 2.125,-33.73 3.16,-50.59 1.351,-16.85 1.664,-33.77 3.875,-50.54 l 5.629,-50.4 c 1.789,-16.81 3.671,-33.61 6.492,-50.29 19.23,-133.91 48.363,-266.31 83.09,-397.12 35.175,-130.73 75.097,-260.15 118.16,-388.52 43.379,-128.33 79.476,-259.7 98.312,-394.16 9.336,-67.17 14.114,-135.12 11.778,-202.99 -2.399,-67.79 -11.735,-135.62 -31.254,-200.76 -10.153,-32.43 -22.508,-64.17 -37.719,-94.59 -15.609,-30.2 -33.672,-59.11 -54.359,-86.11 -42.141,-53.35 -94.188,-98.86 -152.887,-133.09 -58.402,-34.79 -122.336,-59.47 -187.836,-76.85 -65.539,-17.6 -132.941,-27.33 -200.473,-32.53 -67.593,-5.04 -135.5075,-4.78 -203.113,-0.72 -67.5898,4.3 -135.051,12 -201.492,25.15" /><path
         id="path104"
         style="fill:#83a48f;fill-opacity:1;fill-rule:nonzero;stroke:none"
         d="m 2955.91,-269.949 c -41.23,4.078 70.42,429.058 85.55,464.64 64.8,152.348 159.43,278.731 286.32,382.168 258.91,211.039 555.84,226.172 878.19,212.731 309.62,-12.899 672.19,6.441 850.39,259.97 136.3,193.93 111.35,457.81 200.95,677.25 95.93,234.91 332.77,405.56 585.95,422.23 242.95,16 524.78,-87.51 707.87,72.97 110.46,96.82 137.21,258.14 132.77,404.94 -4.46,146.81 -32.77,295.25 -4.05,439.29 37.85,189.73 180.38,355.07 362.46,420.44 182.09,65.37 397.25,28.45 547.12,-93.89 0.24,-1220.92 0.48,-2441.849 0.72,-3662.778 -1544.54,0.008 -3089.09,0.008 -4633.64,0.008 -0.2,0 -0.4,0.011 -0.6,0.031" /><path
         id="path106"
         style="fill:#ede2c7;fill-opacity:1;fill-rule:nonzero;stroke:none"
         d="m 6203.48,1760.42 c 373.22,376.66 917.34,-76.44 1028.13,-471.81 71.29,-254.39 40.9,-547.719 -62.98,-789.719 -64.31,-149.809 -225.25,-338.289 -397.14,-211.231 -57.23,42.309 -104.67,100.93 -171.64,125.07 -71.2,25.668 -150.56,7.012 -221.28,-19.98 -70.71,-26.98 -139.66,-62.461 -214.85,-71.078 -232.99,-26.731 -258.33,267.609 -275.18,437.84 -32.14,324.938 79.31,763.068 314.94,1000.908" /><path
         id="path108"
         style="fill:#ede2c7;fill-opacity:1;fill-rule:nonzero;stroke:none"
         d="m 7715.67,3495.2 c -136.71,34.78 -183.81,-598.64 -194.35,-777.09 7.63,162.3 23.48,696.58 -99.34,682.05 -120.06,-14.2 33.51,-528.95 82.66,-684.23 -55.83,169.32 -263.26,766.43 -390.98,699.18 -124.94,-65.79 265.2,-568.65 376.46,-707.64 -101.48,123.71 -441.48,523.89 -521.57,432.43 -78.22,-89.33 371.84,-363.59 510.54,-444.94 -154.51,88.15 -709.02,393.03 -758.85,257.49 -56.61,-154.02 798.62,-280.49 798.62,-280.49 0,0 359.59,781.81 196.81,823.24" /><path
         id="path110"
         style="fill:#576c61;fill-opacity:1;fill-rule:nonzero;stroke:none"
         d="m 1941.12,-155.77 c 158.83,133.2192 334.89,245.3013 520.49,337.489 92.86,46 187.97,87.562 285.13,123.711 96.98,36.629 196.15,67.441 296.77,92.5 201.32,49.468 409.17,74.05 616.61,67.679 103.63,-3.578 206.97,-11.359 310.51,-14.218 103.42,-2.942 207.32,-2.172 309.88,11.468 51.19,6.981 102.03,17.43 150.94,33.942 48.76,16.5 95.82,39.449 135.68,72.051 39.93,32.339 71.46,74.929 89.83,122.957 18.68,48 24.82,100.062 24.1,151.472 -1.99,103.598 -33.66,203.569 -62.16,302.799 -29.32,99.35 -59.56,198.56 -84.61,299.22 -24.9,100.59 -45.65,202.79 -51.75,306.66 -2.98,51.85 -1.92,104.2 6.45,155.7 8.35,51.31 24.57,102.2 53.1,146.35 28.25,44.19 69.08,80.15 116.04,103.31 46.89,23.5 98.4,36.02 150.07,42.02 51.72,5.47 104.25,6.39 155.9,-1.1 25.91,-3.09 51.35,-9.05 76.6,-15.42 25.04,-7.17 49.9,-15.14 73.96,-25.12 96.71,-39.43 183.02,-99.89 262.13,-166.79 79.39,-67 152.4,-140.85 225.81,-213.9 73.38,-73.06 147.07,-146.05 227.84,-210.67 80.6,-64.16 169.86,-120.1 269.33,-148.47 24.69,-7.39 50.08,-12.08 75.54,-15.83 25.54,-3.31 51.3,-4.74 77.05,-4.42 51.53,0.93 102.76,9.61 152.35,23.69 49.53,14.45 97.62,33.96 142.54,59.31 45.07,25.12 86.88,55.89 125.33,90.32 38.46,34.42 73.88,72.3 105.63,113.04 7.86,10.26 15.91,20.37 23.31,30.95 7.67,10.4 15.04,21.02 22.15,31.8 14.55,21.37 27.89,43.5 40.29,66.16 51.18,89.97 83.92,189 112.36,288.34 28.02,99.66 50.51,200.94 80.8,300.18 14.47,49.81 32.5,98.56 52.12,146.6 11,23.51 20.74,47.63 33.55,70.26 6.25,11.37 11.78,23.16 18.64,34.2 l 20.9,32.93 c 29.75,42.66 64.97,81.4 104.75,114.93 40.18,33.09 84.74,60.46 131.41,83.18 46.64,22.97 96.05,39.83 146.21,53.03 50.18,13.22 101.4,22.59 153.01,27.86 51.59,5.46 103.5,8.08 155.34,7.54 51.83,0.34 103.67,-1.59 155.42,-4.49 103.49,-6.01 206.58,-18.2 308.82,-35.08 204.59,-33.72 405.8,-85.57 603.26,-148.29 -197.64,62.13 -398.98,113.38 -603.55,146.48 -102.24,16.56 -205.28,28.44 -308.7,34.14 -51.7,2.74 -103.48,4.52 -155.24,4.03 -51.79,0.39 -103.52,-2.39 -154.94,-7.98 -51.44,-5.41 -102.48,-14.72 -152.44,-27.97 -49.93,-13.19 -99.1,-30.02 -145.44,-52.91 -46.38,-22.64 -90.63,-49.88 -130.47,-82.77 -39.46,-33.33 -74.37,-71.81 -103.84,-114.16 l -20.72,-32.7 c -6.79,-10.96 -12.28,-22.71 -18.49,-34.03 -12.73,-22.52 -22.39,-46.56 -33.32,-69.97 -19.5,-47.87 -37.41,-96.45 -51.81,-146.18 -30.13,-99.04 -52.51,-200.32 -80.48,-300.18 -28.39,-99.54 -61.12,-198.98 -112.52,-289.58 -12.46,-22.81 -25.85,-45.08 -40.45,-66.56 -7.13,-10.85 -14.54,-21.52 -22.22,-31.98 -7.44,-10.66 -15.52,-20.83 -23.41,-31.14 -31.89,-41.01 -67.49,-79.16 -106.18,-113.87 -38.69,-34.71 -80.79,-65.77 -126.25,-91.15 -45.31,-25.64 -93.82,-45.38 -143.72,-59.99 -50.01,-14.26 -101.77,-23.09 -153.89,-24.09 -26.05,-0.34 -52.12,1.08 -77.97,4.4 -25.76,3.77 -51.46,8.49 -76.44,15.94 -100.64,28.6 -190.66,84.96 -271.71,149.33 -81.22,64.85 -155.13,137.94 -228.61,210.94 -73.5,72.99 -146.47,146.64 -225.59,213.28 -78.85,66.56 -164.65,126.41 -260.3,165.35 -23.8,9.9 -48.35,17.8 -73.09,24.92 -24.94,6.3 -50.07,12.22 -75.64,15.3 -50.99,7.46 -102.91,6.6 -154.11,1.24 -51.07,-5.88 -101.78,-18.2 -147.73,-41.16 -46.01,-22.65 -85.76,-57.62 -113.43,-100.77 -27.92,-43.1 -43.94,-93.05 -52.24,-143.73 -8.33,-50.83 -9.46,-102.72 -6.54,-154.24 5.95,-103.2 26.52,-205.11 51.25,-305.51 24.9,-100.5 55.02,-199.63 84.25,-299.06 14.52,-49.73 28.99,-99.54 40.94,-150.07 5.95,-25.282 10.75,-50.848 14.65,-76.559 3.54,-25.762 5.86,-51.711 6.5,-77.73 0.67,-51.95 -5.57,-104.731 -24.62,-153.559 -18.74,-48.84 -50.96,-92.273 -91.56,-125.07 -40.55,-33.082 -88.2,-56.223 -137.39,-72.832 -49.34,-16.578 -100.48,-27.032 -151.91,-33.989 -103.04,-13.601 -207.14,-14.25 -310.69,-11.211 -103.64,2.981 -207.03,10.86 -310.51,14.532 -207.01,6.597 -414.5,-17.801 -615.6,-66.871 C 2943.83,369.66 2844.7,339.18 2747.7,302.871 2650.52,267.031 2555.36,225.789 2462.41,180.09 2276.67,88.5 2100.34,-23.0195 1941.12,-155.77" /><path
         id="path112"
         style="fill:#576c61;fill-opacity:1;fill-rule:nonzero;stroke:none"
         d="m -348.609,2696.88 c 32.546,23.47 63.453,49.12 93.707,75.42 30.234,26.35 59.574,53.71 87.953,82.02 57.109,56.26 111.0662,115.72 161.11697,178.32 100.04683,125.19 184.94103,262.64 249.30103,409.32 32.019,73.38 59.125,148.87 80.84,225.98 l 14.398,58.31 c 5.195,19.36 8.731,39.08 12.402,58.76 l 5.59,29.52 c 1.946,9.82 3.77,19.67 4.883,29.63 l 7.914,59.56 c 8.008,79.63 12.5,159.91 8.121,239.98 l -1.031,30.05 -0.57,15.02 -1.391,14.96 -5.559,59.9 c -1.339,20.03 -4.957,39.77 -7.855,59.62 l -9.031,59.5 c 30.383,-157.52 39.679,-319.69 22.277,-479.58 l -7.633,-59.8 c -1.066,-10 -2.84,-19.89 -4.746,-29.76 l -5.445,-29.65 c -3.586,-19.78 -7.031,-39.59 -12.141,-59.04 L 330.344,3666.3 C 308.938,3588.78 282.156,3512.81 250.316,3438.95 184.906,3291.94 98.9883,3154.5 -1.95703,3029.53 -103.242,2904.96 -218.297,2790.73 -348.609,2696.88" /><path
         id="path114"
         style="fill:#576c61;fill-opacity:1;fill-rule:nonzero;stroke:none"
         d="m 139.527,3234.79 c 0,0 157.235,89.97 249.411,232.31 92.171,142.34 128.835,121.82 128.835,121.82 0,0 -76.937,60.53 -153.203,-16.84 -76.265,-77.37 -225.043,-337.29 -225.043,-337.29" /><path
         id="path116"
         style="fill:#83a48f;fill-opacity:1;fill-rule:nonzero;stroke:none"
         d="m 139.527,3234.79 c 20.539,31.26 42.207,61.76 64.368,91.88 22.164,30.13 45.23,59.58 68.515,88.88 23.903,28.79 47.988,57.47 73.668,84.76 26.031,26.74 52.555,54.06 84.914,73.19 -15.226,-10.92 -29.304,-23.06 -42.308,-36.44 -13.336,-13.01 -25.848,-26.85 -38.356,-40.65 -24.676,-27.96 -48.719,-56.5 -72.098,-85.58 -23.718,-28.83 -46.648,-58.3 -69.761,-87.63 l -68.942,-88.41" /><path
         id="path118"
         style="fill:#576c61;fill-opacity:1;fill-rule:nonzero;stroke:none"
         d="m 291.492,3563.6 c 0,0 138.254,117.07 203,273.8 64.742,156.73 104.531,143.22 104.531,143.22 0,0 -86.664,45.53 -147.585,-44.42 -60.918,-89.95 -159.946,-372.6 -159.946,-372.6" /><path
         id="path120"
         style="fill:#83a48f;fill-opacity:1;fill-rule:nonzero;stroke:none"
         d="m 291.492,3563.6 c 14.52,34.48 30.278,68.41 46.59,102.06 16.313,33.66 33.637,66.82 51.211,99.85 18.262,32.66 36.727,65.25 57.016,96.75 20.738,31.03 41.843,62.72 70.183,87.42 -12.984,-13.51 -24.617,-28.01 -34.972,-43.53 -10.754,-15.22 -20.536,-31.1 -30.325,-46.95 -19.175,-31.98 -37.625,-64.41 -55.328,-97.27 -18.078,-32.66 -35.265,-65.8 -52.66,-98.85 l -51.715,-99.48" /><path
         id="path122"
         style="fill:#576c61;fill-opacity:1;fill-rule:nonzero;stroke:none"
         d="m 379.195,3973.52 c 0,0 120.653,135.14 163,299.34 42.352,164.2 83.629,156.35 83.629,156.35 0,0 -92.148,33.05 -139.988,-64.49 -47.84,-97.54 -106.641,-391.2 -106.641,-391.2" /><path
         id="path124"
         style="fill:#83a48f;fill-opacity:1;fill-rule:nonzero;stroke:none"
         d="m 379.195,3973.52 c 9.582,36.16 20.485,71.94 31.957,107.54 11.485,35.6 24.036,70.84 36.844,105.99 13.551,34.89 27.317,69.72 43.035,103.74 16.219,33.6 32.723,67.92 57.36,96.31 -10.985,-15.17 -20.493,-31.15 -28.59,-47.96 -8.531,-16.56 -16.012,-33.65 -23.508,-50.71 -14.547,-34.33 -28.313,-69.01 -41.277,-104.01 -13.371,-34.85 -25.793,-70.06 -38.422,-105.21 l -37.399,-105.69" /><path
         id="path126"
         style="fill:#576c61;fill-opacity:1;fill-rule:nonzero;stroke:none"
         d="m 354.57,4365.75 c 0,0 37.559,177.22 -7.281,340.76 -44.84,163.54 -5.117,177.24 -5.117,177.24 0,0 -96.387,-17.11 -89.438,-125.53 6.954,-108.41 101.836,-392.47 101.836,-392.47" /><path
         id="path128"
         style="fill:#83a48f;fill-opacity:1;fill-rule:nonzero;stroke:none"
         d="m 354.57,4365.75 c -9.648,36.14 -17.972,72.61 -25.699,109.2 -7.723,36.59 -14.344,73.41 -20.691,110.3 -5.575,37 -10.938,74.06 -14.2,111.39 -2.625,37.23 -5.351,75.21 1.918,112.09 -1.992,-18.63 -2.304,-37.21 -0.976,-55.84 0.824,-18.6 2.82,-37.15 4.797,-55.67 4.437,-37.03 9.719,-73.97 15.855,-110.78 5.715,-36.89 12.434,-73.61 18.934,-110.39 l 20.062,-110.3" /><path
         id="path130"
         style="fill:#576c61;fill-opacity:1;fill-rule:nonzero;stroke:none"
         d="m 93.1055,3160.28 c 0,0 -45.0235,175.48 -7.1446,340.76 37.8831,165.3 -2.3828,177.3 -2.3828,177.3 0,0 97.0269,-13.01 94.6639,-121.63 -2.359,-108.61 -85.1365,-396.43 -85.1365,-396.43" /><path
         id="path132"
         style="fill:#83a48f;fill-opacity:1;fill-rule:nonzero;stroke:none"
         d="m 93.1055,3160.28 15.3745,111.05 c 4.942,37.02 10.098,74 14.25,111.1 4.575,37.04 8.29,74.16 11.157,111.34 1.187,18.6 2.402,37.21 2.437,55.84 0.535,18.65 -0.562,37.21 -3.34,55.74 8.825,-36.54 7.704,-74.6 6.661,-111.91 -1.68,-37.43 -5.473,-74.69 -9.473,-111.9 -4.785,-37.11 -9.84,-74.18 -16.012,-111.07 -6.172,-36.89 -12.945,-73.67 -21.0545,-110.19" /><path
         id="path134"
         style="fill:#576c61;fill-opacity:1;fill-rule:nonzero;stroke:none"
         d="m 283.453,3532.92 c 0,0 -87.808,158.46 -92.824,327.96 -5.016,169.5 -47.008,170.97 -47.008,170.97 0,0 97.176,11.86 122.277,-93.84 25.098,-105.7 17.555,-405.09 17.555,-405.09" /><path
         id="path136"
         style="fill:#83a48f;fill-opacity:1;fill-rule:nonzero;stroke:none"
         d="m 283.453,3532.92 -13.117,111.34 c -4.551,37.07 -8.883,74.16 -14.219,111.1 -4.91,37 -10.679,73.86 -17.277,110.56 -3.535,18.29 -7.059,36.61 -11.723,54.65 -4.179,18.18 -9.922,35.87 -17.277,53.1 17.75,-33.14 26.258,-70.25 34.656,-106.61 7.809,-36.65 13.535,-73.67 19.039,-110.68 4.731,-37.12 9.184,-74.27 12.516,-111.52 3.324,-37.25 6.043,-74.56 7.402,-111.94" /><path
         id="path138"
         style="fill:#576c61;fill-opacity:1;fill-rule:nonzero;stroke:none"
         d="m 373.57,3931.51 c 0,0 -106.445,146.59 -132.062,314.22 -25.613,167.63 -67.477,163.97 -67.477,163.97 0,0 95.008,23.61 132.789,-78.24 37.785,-101.86 66.75,-399.95 66.75,-399.95" /><path
         id="path140"
         style="fill:#83a48f;fill-opacity:1;fill-rule:nonzero;stroke:none"
         d="m 373.57,3931.51 -26.574,108.92 c -9.031,36.24 -17.848,72.52 -27.644,108.54 -9.379,36.12 -19.586,72.01 -30.606,107.64 -5.742,17.72 -11.465,35.48 -18.285,52.81 -6.367,17.54 -14.223,34.39 -23.621,50.6 21.652,-30.73 34.621,-66.53 47.379,-101.6 12.219,-35.43 22.402,-71.47 32.379,-107.53 9.207,-36.27 18.152,-72.6 25.996,-109.17 7.836,-36.57 15.078,-73.27 20.976,-110.21" /><path
         id="path142"
         style="fill:#576c61;fill-opacity:1;fill-rule:nonzero;stroke:none"
         d="m 7691.29,-58.4297 c -117.72,109.25 -217.75,236.8277 -302.85,372.9687 -84.72,136.5 -152.98,283.52 -199.71,437.473 -22.46,77.238 -39.64,155.937 -51.29,235.519 l -6.8,59.909 c -2.65,19.94 -3.62,40.02 -4.73,60.09 l -1.75,30.1 c -0.66,10.03 -1.2,20.06 -1.03,30.11 l -0.17,60.29 c 2.51,160.81 31.79,320.59 81.42,473.13 l -16.32,-57.92 c -5.34,-19.33 -11.36,-38.47 -15.17,-58.19 l -12.93,-58.74 -3.22,-14.68 -2.42,-14.83 -4.75,-29.69 c -14.25,-78.92 -19.72,-159.13 -21.62,-239.15 l 0.49,-60.09 c -0.13,-10.02 0.47,-20.01 1.18,-30 l 1.89,-29.98 c 1.21,-19.99 2.29,-39.99 5.04,-59.84 l 7.08,-59.64 c 12.01,-79.211 29.57,-157.469 52.27,-234.25 45.72,-153.519 112.97,-300.41 196.77,-437.012 41.92,-68.296 88.1,-134 137.82,-196.886 24.66,-31.6018 50.39,-62.3714 77.13,-92.262 26.77,-29.85156 54.27,-59.1094 83.67,-86.4297" /><path
         id="path144"
         style="fill:#576c61;fill-opacity:1;fill-rule:nonzero;stroke:none"
         d="m 7273.43,535.73 c -19.23,43.918 -39.2,87.5 -59.76,130.79 -20.36,43.378 -41.34,86.48 -63.77,128.761 -11.24,21.141 -22.84,42.039 -35.1,62.528 -12.58,20.191 -25.47,40.523 -42.42,56.613 -16.93,15.918 -38.34,27.578 -61.49,29.777 -22.93,2.699 -46.96,-2.828 -67.11,-13.437 l -3.29,6.57 c 4.42,1.309 7.13,0.598 10.32,0.008 3.08,-0.649 5.79,-1.86 8.54,-3.039 5.25,-2.692 10,-5.981 14.42,-9.563 8.84,-7.218 16.17,-15.718 23.27,-24.308 13.94,-17.41 25.46,-36.371 36.45,-55.532 10.91,-19.148 20.26,-39.347 30.42,-58.628 l 7.52,-14.559 8.19,-14.199 8.27,-14.172 8.95,-13.758 c 23.92,-36.66 51.33,-71.051 81.01,-103.363 29.69,-32.278 61.26,-63.008 95.58,-90.489 z m 0,0 c -35.04,26.571 -67.47,56.5 -98.13,88.11 -30.44,31.82 -58.39,66.101 -83.1,102.66 l -9.23,13.738 -8.57,14.184 -8.48,14.226 -7.7,14.684 c -10.43,19.559 -19.64,39.258 -30.59,58.258 -10.95,18.89 -22.44,37.551 -36.08,54.422 -6.91,8.289 -14.07,16.468 -22.34,23.136 -4.12,3.313 -8.47,6.262 -13.02,8.563 -2.31,0.969 -4.62,2 -6.96,2.48 -2.11,0.559 -5.08,0.618 -5.97,0.309 l -0.35,-0.121 c -1.91,-0.66 -4,0.351 -4.67,2.269 -0.59,1.723 0.18,3.59 1.73,4.422 22.02,11.86 46.99,17.262 71.74,14.352 24.83,-2.473 47.74,-15.152 65.41,-31.961 17.78,-17.102 30.67,-37.832 43.3,-58.262 12.24,-20.719 23.89,-41.75 34.75,-63.16 43.64,-85.559 82.09,-173.508 118.26,-262.309" /><path
         id="path146"
         style="fill:#576c61;fill-opacity:1;fill-rule:nonzero;stroke:none"
         d="m 7273.43,535.73 -57.48,96.25 c -19.31,31.981 -38.42,64.051 -58.39,95.579 -19.61,31.761 -39.94,63.05 -60.97,93.851 -10.7,15.238 -21.39,30.52 -33.03,45.07 -11.25,14.899 -23.72,28.692 -37.48,41.399 29.75,-22.988 52.69,-53.379 75.22,-83.129 22.1,-30.258 42.46,-61.691 62.61,-93.23 19.49,-31.938 38.74,-64.02 57.01,-96.661 18.26,-32.629 35.98,-65.57 52.51,-99.129" /><path
         id="path148"
         style="fill:#576c61;fill-opacity:1;fill-rule:nonzero;stroke:none"
         d="m 7163.29,880.809 c -10.93,46.679 -22.63,93.171 -34.96,139.481 -12.14,46.36 -24.93,92.55 -39.3,138.21 -7.2,22.83 -14.81,45.49 -23.13,67.87 -8.71,22.15 -17.69,44.48 -31.42,63.4 -13.76,18.72 -32.68,34.08 -55.06,40.44 -22.05,6.84 -46.69,5.77 -68.42,-1 l -2.04,7.06 c 4.58,0.49 7.11,-0.71 10.14,-1.87 2.9,-1.2 5.36,-2.89 7.84,-4.55 4.68,-3.58 8.75,-7.68 12.44,-12.02 7.39,-8.69 13.05,-18.39 18.47,-28.12 10.53,-19.67 18.42,-40.4 25.73,-61.24 7.26,-20.82 12.77,-42.38 19.25,-63.19 l 4.76,-15.68 5.47,-15.46 5.55,-15.44 6.29,-15.16 c 16.87,-40.39 37.56,-79.2 60.86,-116.36 23.33,-37.141 48.79,-73.102 77.53,-106.371 z m 0,0 c -29.62,32.511 -56.07,67.832 -80.46,104.48 -24.14,36.841 -45.4,75.631 -63.04,116.081 l -6.59,15.19 -5.83,15.5 -5.76,15.54 -4.9,15.83 c -6.69,21.13 -12.17,42.17 -19.48,62.85 -7.34,20.56 -15.24,41.01 -25.58,60.07 -5.29,9.41 -10.84,18.76 -17.76,26.81 -3.46,4.02 -7.19,7.71 -11.24,10.8 -2.1,1.38 -4.19,2.81 -6.4,3.7 -1.97,0.93 -4.88,1.53 -5.81,1.39 l -0.37,-0.06 c -2,-0.3 -3.87,1.08 -4.17,3.08 -0.27,1.81 0.82,3.51 2.5,4.04 23.81,7.65 49.34,8.42 73.15,1.06 23.97,-6.96 44.19,-23.58 58.51,-43.32 14.37,-20.05 23.28,-42.78 31.98,-65.16 8.26,-22.61 15.89,-45.41 22.68,-68.44 27.34,-92.07 49.15,-185.531 68.57,-279.441" /><path
         id="path150"
         style="fill:#576c61;fill-opacity:1;fill-rule:nonzero;stroke:none"
         d="m 7163.29,880.809 -39.01,105.113 c -13.18,34.938 -26.14,69.958 -40.04,104.598 -13.5,34.79 -27.79,69.26 -42.87,103.37 -7.76,16.94 -15.49,33.9 -24.28,50.34 -8.36,16.68 -18.11,32.51 -29.33,47.52 25.07,-28.02 42.1,-62.07 58.84,-95.43 16.23,-33.77 30.53,-68.39 44.61,-103.06 13.36,-34.95 26.45,-70 38.48,-105.42 12.02,-35.41 23.46,-71.02 33.6,-107.031" /><path
         id="path152"
         style="fill:#576c61;fill-opacity:1;fill-rule:nonzero;stroke:none"
         d="m 7126.96,1298.43 c -4.33,47.74 -9.46,95.42 -15.25,142.99 -5.58,47.58 -11.83,95.1 -19.72,142.32 -3.96,23.6 -8.35,47.11 -13.47,70.42 -5.56,23.14 -11.34,46.5 -22.32,67.14 -11.02,20.46 -27.64,38.3 -48.91,47.71 -20.88,9.84 -45.43,12.19 -67.91,8.51 l -1.03,7.28 c 4.61,-0.16 6.95,-1.69 9.79,-3.26 2.71,-1.6 4.91,-3.61 7.13,-5.59 4.14,-4.21 7.59,-8.83 10.66,-13.64 6.09,-9.63 10.36,-20.02 14.37,-30.42 7.71,-20.93 12.63,-42.56 16.99,-64.21 4.29,-21.63 6.75,-43.74 10.28,-65.26 l 2.53,-16.19 3.27,-16.06 3.35,-16.06 4.13,-15.89 c 11.09,-42.34 26.2,-83.65 44.11,-123.69 17.94,-40.02 38.16,-79.16 62,-116.1 z m 0,0 c -24.82,36.31 -46.11,74.96 -65.16,114.65 -18.8,39.82 -34.46,81.19 -46.32,123.7 l -4.41,15.95 -3.62,16.17 -3.54,16.18 -2.66,16.37 c -3.69,21.85 -6.19,43.44 -10.57,64.94 -4.4,21.38 -9.39,42.72 -16.98,63.04 -3.93,10.05 -8.13,20.08 -13.87,29.03 -2.86,4.44 -6.04,8.62 -9.63,12.25 -1.89,1.65 -3.75,3.35 -5.82,4.53 -1.83,1.22 -4.62,2.21 -5.56,2.2 h -0.37 c -2.02,-0.03 -3.69,1.59 -3.71,3.62 -0.02,1.83 1.3,3.35 3.03,3.66 24.64,4.26 50.04,1.48 72.6,-9.11 22.76,-10.22 40.49,-29.5 51.92,-51.03 11.45,-21.86 17.11,-45.61 22.62,-68.97 5.04,-23.54 9.44,-47.17 12.95,-70.92 14.3,-94.98 22.91,-190.58 29.1,-286.26" /><path
         id="path154"
         style="fill:#576c61;fill-opacity:1;fill-rule:nonzero;stroke:none"
         d="m 7126.96,1298.43 -24.04,109.5 c -8.18,36.44 -16.15,72.92 -25.12,109.15 -8.53,36.34 -17.91,72.45 -28.09,108.32 -5.33,17.85 -10.64,35.73 -17.05,53.22 -5.96,17.69 -13.42,34.72 -22.45,51.14 20.93,-31.22 33.07,-67.32 45.01,-102.68 11.39,-35.69 20.74,-71.96 29.87,-108.25 8.37,-36.47 16.46,-73 23.45,-109.74 7,-36.74 13.38,-73.6 18.42,-110.66" /><path
         id="path156"
         style="fill:#576c61;fill-opacity:1;fill-rule:nonzero;stroke:none"
         d="m 7199.9,1684.6 c 19.97,43.58 39.2,87.5 57.81,131.66 18.81,44.07 37.01,88.42 53.62,133.31 8.29,22.45 16.16,45.03 23.29,67.81 6.68,22.83 13.27,45.99 14,69.35 0.6,23.23 -4.95,46.97 -18.74,65.71 -13.24,18.91 -33.37,33.15 -54.69,41.12 l 2.71,6.83 c 3.92,-2.43 5.19,-4.92 6.88,-7.69 1.55,-2.73 2.47,-5.57 3.4,-8.4 1.51,-5.71 2.21,-11.44 2.47,-17.12 0.51,-11.4 -0.95,-22.53 -2.63,-33.55 -3.72,-21.99 -10.2,-43.21 -17.18,-64.16 -7.01,-20.91 -15.87,-41.32 -23.49,-61.74 l -5.86,-15.31 -5.14,-15.56 -5.06,-15.61 -4.32,-15.83 c -11.41,-42.27 -18.84,-85.62 -23.18,-129.27 -4.32,-43.64 -6.22,-87.65 -3.89,-131.55 z m 0,0 c -3.49,43.84 -2.76,87.96 0.41,131.86 3.49,43.91 10.45,87.59 21.28,130.38 l 4.11,16.03 4.89,15.82 4.96,15.81 5.83,15.52 c 7.65,20.8 16.21,40.78 23.09,61.61 6.81,20.74 13.09,41.75 16.59,63.15 1.58,10.68 2.92,21.47 2.39,32.08 -0.28,5.28 -0.96,10.48 -2.27,15.42 -0.82,2.37 -1.59,4.77 -2.8,6.83 -0.98,1.95 -2.91,4.21 -3.73,4.67 l -0.32,0.18 c -1.77,0.98 -2.42,3.22 -1.43,4.99 0.89,1.6 2.8,2.26 4.46,1.66 23.5,-8.54 44.15,-23.58 58.47,-43.98 14.68,-20.17 20.48,-45.71 19.7,-70.08 -0.92,-24.66 -7.81,-48.07 -14.64,-71.1 -7.32,-22.93 -15.25,-45.62 -24,-67.98 -34.78,-89.52 -74.81,-176.76 -116.99,-262.87" /><path
         id="path158"
         style="fill:#576c61;fill-opacity:1;fill-rule:nonzero;stroke:none"
         d="m 7199.9,1684.6 33.56,106.96 c 10.99,35.7 22.2,71.31 32.44,107.21 10.64,35.77 20.45,71.77 29.43,107.97 4.25,18.13 8.53,36.29 11.64,54.66 3.63,18.31 5.61,36.79 5.94,55.51 2.66,-37.49 -4.75,-74.84 -11.95,-111.46 -7.86,-36.63 -17.77,-72.75 -27.87,-108.78 -10.86,-35.81 -21.99,-71.53 -34.18,-106.89 -12.19,-35.36 -24.96,-70.51 -39.01,-105.18" /><path
         id="path160"
         style="fill:#576c61;fill-opacity:1;fill-rule:nonzero;stroke:none"
         d="m 7310.27,456.039 c -15.76,94.59 -29.14,189.633 -36.84,285.371 -1.98,23.93 -3.09,47.949 -3.54,72.012 0.04,24.008 0.15,48.43 6.32,72.308 6.23,23.579 19.1,46.379 38.95,61.508 19.55,15.461 43.64,23.953 68.6,25.403 2.02,0.109 3.76,-1.43 3.88,-3.45 0.1,-1.82 -1.14,-3.41 -2.86,-3.793 l -0.38,-0.078 c -0.91,-0.199 -3.4,-1.808 -4.91,-3.41 -1.74,-1.621 -3.16,-3.699 -4.63,-5.738 -2.67,-4.352 -4.82,-9.141 -6.6,-14.133 -3.53,-10.008 -5.34,-20.73 -6.88,-31.418 -2.77,-21.512 -2.77,-43.422 -2.19,-65.25 0.63,-21.922 3.11,-43.519 4.5,-65.641 l 1.14,-16.539 0.24,-16.57 0.14,-16.562 -0.65,-16.539 c -1.87,-44.098 -7.7,-87.938 -16.93,-131 -9.52,-42.981 -21.46,-85.469 -37.36,-126.481 z m 0,0 c 14.81,41.402 25.58,84.133 33.94,127.172 8.33,43.07 13.63,86.73 14.78,130.5 l 0.4,16.41 -0.38,16.391 -0.47,16.386 -1.24,16.352 c -1.45,21.742 -4.09,43.84 -4.83,65.871 -0.69,22.078 -0.82,44.25 1.91,66.391 1.55,11.047 3.33,22.129 7.08,32.898 1.88,5.379 4.19,10.672 7.26,15.711 1.72,2.438 3.4,4.899 5.67,7.07 2.42,2.168 4.34,4.2 8.79,5.399 l 0.65,-7.328 c -22.72,-1.532 -46.09,-9.41 -64.18,-23.742 -18.58,-14.008 -30.69,-35.161 -36.76,-57.59 -5.99,-22.59 -6.3,-46.66 -6.43,-70.45 0.3,-23.878 1.38,-47.769 2.91,-71.648 3.06,-47.773 7.79,-95.461 13.2,-143.082 5.19,-47.641 11.05,-95.219 17.7,-142.711" /><path
         id="path162"
         style="fill:#576c61;fill-opacity:1;fill-rule:nonzero;stroke:none"
         d="m 7310.27,456.039 c -3.53,37.25 -5.7,74.582 -7.26,111.961 -1.56,37.371 -1.99,74.77 -2.15,112.199 0.62,37.41 1.47,74.852 4.43,112.199 3.59,37.153 7.18,75.063 20.45,110.231 -5.04,-18.039 -8.43,-36.32 -10.2,-54.899 -2.27,-18.488 -3.37,-37.109 -4.49,-55.71 -1.75,-37.239 -2.66,-74.551 -2.7,-111.868 -0.47,-37.32 0.08,-74.652 0.4,-112.011 l 1.52,-112.102" /><path
         id="path164"
         style="fill:#576c61;fill-opacity:1;fill-rule:nonzero;stroke:none"
         d="m 7167.47,849.371 c 8.59,95.5 19.61,190.839 36.29,285.429 4.11,23.66 9.1,47.17 14.74,70.57 6.09,23.23 12.35,46.83 24.34,68.39 11.97,21.24 30.18,40.07 53.2,49.7 22.81,10.03 48.27,12.17 72.79,7.28 1.99,-0.39 3.28,-2.32 2.88,-4.3 -0.35,-1.8 -1.96,-3.02 -3.73,-2.95 l -0.37,0.01 c -0.94,0.04 -3.76,-0.89 -5.62,-2.05 -2.09,-1.14 -4,-2.8 -5.93,-4.4 -3.68,-3.53 -6.97,-7.64 -9.94,-12 -5.95,-8.8 -10.4,-18.72 -14.59,-28.67 -8.1,-20.12 -13.63,-41.33 -18.56,-62.6 -4.92,-21.38 -7.96,-42.9 -12.2,-64.65 l -3.06,-16.3 -3.96,-16.08 -4.03,-16.07 -4.8,-15.85 c -12.94,-42.19 -29.63,-83.15 -49.41,-122.49 -20.06,-39.199 -42.32,-77.301 -68.04,-112.969 z m 0,0 c 24.77,36.32 45.97,74.949 64.9,114.508 18.92,39.571 35.06,80.491 47.21,122.541 l 4.53,15.78 3.75,15.96 3.68,15.98 2.93,16.12 c 4.07,21.42 7.09,43.47 11.93,64.97 4.89,21.54 10.37,43.04 18.59,63.77 4.28,10.3 8.8,20.57 15.14,30.05 3.18,4.73 6.75,9.27 10.98,13.36 2.29,1.94 4.53,3.89 7.28,5.42 2.88,1.5 5.25,2.97 9.87,3.01 l -1.22,-7.25 c -22.37,4.24 -46.97,2.51 -68.1,-6.79 -21.5,-8.88 -38.55,-26.3 -50.09,-46.47 -11.49,-20.35 -17.86,-43.56 -24,-66.56 -5.71,-23.17 -10.69,-46.56 -15.24,-70.06 -9.08,-47 -16.52,-94.34 -23.29,-141.788 -6.98,-47.41 -13.31,-94.93 -18.85,-142.551" /><path
         id="path166"
         style="fill:#576c61;fill-opacity:1;fill-rule:nonzero;stroke:none"
         d="m 7167.47,849.371 c 5.98,36.93 13.28,73.609 21.19,110.16 7.92,36.551 16.93,72.869 26.21,109.119 10.04,36.05 20.31,72.06 32.59,107.46 12.82,35.05 25.86,70.82 47.57,101.52 -9.42,-16.19 -17.32,-33.03 -23.71,-50.56 -6.86,-17.32 -12.62,-35.06 -18.39,-52.77 -11.09,-35.61 -21.37,-71.48 -30.82,-107.58 -9.86,-36 -18.75,-72.271 -27.85,-108.49 l -26.79,-108.859" /><path
         id="path168"
         style="fill:#576c61;fill-opacity:1;fill-rule:nonzero;stroke:none"
         d="m 7127.34,1256.04 c 20.16,93.75 42.71,187.05 70.78,278.9 6.96,22.98 14.77,45.71 23.22,68.25 8.87,22.32 17.96,44.97 32.49,64.92 14.47,19.61 34.82,36.09 58.85,42.85 23.86,7.17 49.39,6.21 73.13,-1.63 1.92,-0.64 2.97,-2.71 2.33,-4.63 -0.56,-1.74 -2.31,-2.76 -4.06,-2.47 l -0.36,0.06 c -0.93,0.14 -3.84,-0.43 -5.82,-1.36 -2.23,-0.87 -4.32,-2.29 -6.43,-3.64 -4.08,-3.06 -7.84,-6.72 -11.32,-10.71 -6.99,-8.01 -12.61,-17.31 -17.98,-26.68 -10.49,-18.98 -18.56,-39.36 -26.05,-59.86 -7.48,-20.63 -13.12,-41.62 -19.97,-62.7 l -5.03,-15.79 -5.89,-15.5 -5.95,-15.44 -6.69,-15.14 c -17.98,-40.31 -39.53,-78.94 -63.97,-115.58 -24.67,-36.45 -51.4,-71.57 -81.28,-103.85 z m 0,0 c 29.01,33.05 54.75,68.8 78.36,105.76 23.6,36.97 44.6,75.62 61.78,115.89 l 6.42,15.1 5.67,15.39 5.59,15.41 4.88,15.65 c 6.64,20.76 12.32,42.27 19.75,63.04 7.48,20.78 15.52,41.45 26.21,61.03 5.49,9.7 11.24,19.35 18.69,27.98 3.73,4.31 7.82,8.37 12.53,11.92 2.5,1.64 4.97,3.31 7.88,4.5 3.03,1.13 5.57,2.3 10.16,1.78 l -2.1,-7.05 c -21.69,6.94 -46.31,8.21 -68.41,1.55 -22.43,-6.2 -41.47,-21.4 -55.38,-40.03 -13.88,-18.79 -23.03,-41.06 -31.92,-63.13 -8.49,-22.3 -16.28,-44.92 -23.66,-67.69 -14.74,-45.54 -27.89,-91.64 -40.38,-137.89 -12.71,-46.21 -24.78,-92.61 -36.07,-139.21" /><path
         id="path170"
         style="fill:#576c61;fill-opacity:1;fill-rule:nonzero;stroke:none"
         d="m 7127.34,1256.04 c 10.42,35.93 22.15,71.45 34.46,106.77 12.3,35.32 25.66,70.27 39.29,105.11 14.36,34.56 28.93,69.06 45.42,102.7 17.01,33.23 34.3,67.15 59.58,94.97 -11.32,-14.93 -21.2,-30.67 -29.68,-47.3 -8.92,-16.35 -16.79,-33.26 -24.68,-50.14 -15.34,-33.99 -29.91,-68.34 -43.69,-103.02 -14.17,-34.53 -27.41,-69.45 -40.85,-104.29 l -39.85,-104.8" /><path
         id="path172"
         style="fill:#ede2c7;fill-opacity:1;fill-rule:nonzero;stroke:none"
         d="m 3936.95,75.6094 c 264.68,85.5706 741.48,261.5316 968.33,480.7106 34.6,33.442 92.52,13.45 98.54,-34.3 32.99,-261.918 -6.12,-834.122 -1063.39,-558.4497 -56.57,14.75 -59.1,94.0508 -3.48,112.0391" /><path
         id="path174"
         style="fill:#576c61;fill-opacity:1;fill-rule:nonzero;stroke:none"
         d="M 4021.95,29.5391 C 4007.7,25 3995.34,14.8398 3988.51,1.58203 c -7.13,-13.14063 -8.35,-29.04293 -4.39,-43.33203 3.69,-14.4414 13.55,-27.0703 26.56,-34.1992 13.04,-7.1797 28.29,-8.9102 42.62,-12.8399 57.92,-14.5119 116.34,-26.9609 175.09,-37.5199 117.48,-20.57 237.08,-32.152 356.21,-25.472 59.42,4.39 118.62,13.429 175.63,30.511 56.91,17.032 111.52,42.8208 158.56,79.02 46.95,36.10937 86.63,82.0313 113.5,134.9414 l 10.09,19.7966 8.6,20.504 c 6.19,13.488 10.02,27.899 15.04,41.828 8,28.539 15.16,57.422 18.88,86.91 4.36,29.352 6.83,59.02 7.28,88.75 0.75,29.719 -0.3,59.489 -2.88,89.129 -0.53,7.422 -1.26,14.821 -2.13,22.211 -0.79,7.399 -1.49,14.91 -3.07,21.672 -3.83,13.547 -12.76,25.758 -25.21,32.656 -6.07,3.641 -12.89,6.032 -19.92,6.981 -6.99,1.242 -14.2,0.73 -21.08,-0.859 -7.01,-1.36 -13.28,-4.95 -19.25,-8.731 -5.41,-4.398 -11.04,-9.449 -16.64,-14.449 l -33.56,-29.871 c -11.61,-9.438 -23.58,-18.449 -35.34,-27.688 L 4895.35,427.781 4876.9,415 4840,389.48 C 4789.55,357.391 4738.32,326.461 4685.23,298.98 4579.64,242.941 4470.27,194.371 4359.28,150.238 4248.33,105.941 4135.64,66.1094 4021.95,29.5391 Z m 0,0 c 113.51,37.1601 225.96,77.5819 336.63,122.4299 110.72,44.691 219.75,93.801 324.9,150.312 52.86,27.707 103.81,58.84 153.95,91.098 l 36.63,25.621 18.31,12.832 17.59,13.777 c 11.66,9.25 23.53,18.282 35.03,27.723 l 33.18,29.848 c 5.53,4.968 10.95,9.949 17.12,14.992 6.53,4.238 13.48,8.199 21.22,9.769 7.61,1.809 15.6,2.399 23.33,1.079 7.77,-1.008 15.34,-3.61 22.08,-7.61 13.82,-7.57 23.96,-21.18 28.28,-36.258 1.85,-7.812 2.51,-15.191 3.35,-22.621 0.91,-7.441 1.69,-14.879 2.26,-22.351 2.75,-29.848 3.98,-59.848 3.37,-89.828 -0.29,-29.993 -2.63,-59.981 -6.88,-89.704 -3.82,-29.808 -11.28,-59.027 -19.54,-87.898 -5.16,-14.121 -9.13,-28.668 -15.47,-42.34 l -8.83,-20.75 -10.34,-20.0584 c -27.56,-53.5508 -68.13,-100.0118 -115.9,-136.3321 -47.88,-36.4375 -103.21,-62.1795 -160.63,-79.0395 -57.54,-16.91 -117.08,-25.679 -176.75,-29.761 -119.61,-6.078 -239.3,6.16 -356.78,27.383 -58.74,10.859 -117.12,23.628 -174.98,38.4488 -14.32,4.0078 -29.52,5.7695 -42.75,13.1406 -13.14,7.2891 -23.02,20.1094 -26.66,34.6875 -3.92,14.4219 -2.6,30.4023 4.63,43.56251 6.93,13.27739 19.38,23.39059 33.65,27.84769" /><path
         id="path176"
         style="fill:#576c61;fill-opacity:1;fill-rule:nonzero;stroke:none"
         d="m 1939.9,408.719 c 6.33,8.672 14.65,16.043 24.37,20.972 9.71,4.957 20.58,7.539 31.49,8.161 21.93,1.058 43.66,-5.321 63.03,-15 19.1,-9.282 38.97,-17.102 59.71,-20.942 20.67,-3.949 41.95,-3.918 62.66,-0.23 20.76,3.601 40.92,10.55 60.55,18.761 9.84,4.059 19.53,8.547 29.15,13.2 9.44,4.711 19.69,9.379 30.16,12.351 20.89,6.309 43.62,7.598 64.76,1.778 21.24,-5.719 39.35,-20.2 50.79,-38.29 -12.85,17.11 -30.96,30.391 -51.73,34.731 -20.48,4.879 -42.24,3 -62.11,-3.731 -10.06,-3.289 -19.3,-7.789 -29.03,-12.671 -9.64,-4.778 -19.37,-9.418 -29.32,-13.649 -19.82,-8.531 -40.39,-15.918 -61.92,-19.851 -21.56,-3.629 -43.86,-3.418 -65.28,0.921 -21.43,4.321 -41.95,12.239 -60.99,22.5 -18.55,10.032 -39.17,16.719 -60.31,16.469 -10.5,-0.058 -21.08,-1.969 -30.75,-6.301 -9.65,-4.347 -18.27,-11.007 -25.23,-19.179" /><path
         id="path178"
         style="fill:#576c61;fill-opacity:1;fill-rule:nonzero;stroke:none"
         d="m 1939.9,338.922 c 6.33,8.668 14.65,16.027 24.37,20.957 9.71,4.973 20.58,7.543 31.49,8.172 21.93,1.051 43.66,-5.332 63.03,-15 19.1,-9.281 38.97,-17.102 59.71,-20.942 20.67,-3.961 41.95,-3.929 62.66,-0.238 20.76,3.609 40.92,10.559 60.55,18.758 9.84,4.07 19.53,8.562 29.15,13.211 9.44,4.699 19.69,9.371 30.16,12.34 20.89,6.32 43.62,7.609 64.76,1.789 21.24,-5.719 39.35,-20.199 50.79,-38.289 -12.85,17.109 -30.96,30.39 -51.73,34.718 -20.48,4.891 -42.24,3 -62.11,-3.726 -10.06,-3.281 -19.3,-7.793 -29.03,-12.66 -9.64,-4.793 -19.37,-9.43 -29.32,-13.653 -19.82,-8.527 -40.39,-15.918 -61.92,-19.859 -21.56,-3.621 -43.86,-3.418 -65.28,0.93 -21.43,4.32 -41.95,12.242 -60.99,22.5 -18.55,10.031 -39.17,16.718 -60.31,16.461 -10.5,-0.051 -21.08,-1.969 -30.75,-6.282 -9.65,-4.359 -18.27,-11.019 -25.23,-19.187" /><path
         id="path180"
         style="fill:#576c61;fill-opacity:1;fill-rule:nonzero;stroke:none"
         d="m 1939.9,269.109 c 6.33,8.672 14.65,16.043 24.37,20.973 9.71,4.969 20.58,7.539 31.49,8.16 21.93,1.059 43.66,-5.312 63.03,-15 19.1,-9.281 38.97,-17.094 59.71,-20.933 20.67,-3.957 41.95,-3.93 62.66,-0.239 20.76,3.602 40.92,10.559 60.55,18.762 9.84,4.059 19.53,8.547 29.15,13.199 9.44,4.707 19.69,9.379 30.16,12.348 20.89,6.32 43.62,7.601 64.76,1.781 21.24,-5.719 39.35,-20.191 50.79,-38.289 -12.85,17.121 -30.96,30.391 -51.73,34.738 -20.48,4.871 -42.24,2.993 -62.11,-3.738 -10.06,-3.281 -19.3,-7.789 -29.03,-12.672 -9.64,-4.777 -19.37,-9.418 -29.32,-13.648 -19.82,-8.52 -40.39,-15.922 -61.92,-19.852 -21.56,-3.629 -43.86,-3.418 -65.28,0.922 -21.43,4.32 -41.95,12.238 -60.99,22.5 -18.55,10.027 -39.17,16.719 -60.31,16.469 -10.5,-0.051 -21.08,-1.969 -30.75,-6.289 -9.65,-4.34 -18.27,-11.012 -25.23,-19.192" /><path
         id="path182"
         style="fill:#576c61;fill-opacity:1;fill-rule:nonzero;stroke:none"
         d="m 6452.22,2639.18 c 6.32,8.67 14.64,16.03 24.36,20.97 9.72,4.96 20.58,7.54 31.49,8.16 21.93,1.06 43.66,-5.32 63.03,-15 19.1,-9.28 38.97,-17.09 59.7,-20.93 20.68,-3.96 41.96,-3.93 62.68,-0.24 20.75,3.6 40.91,10.55 60.54,18.76 9.84,4.06 19.52,8.55 29.15,13.2 9.45,4.71 19.69,9.38 30.16,12.35 20.89,6.31 43.62,7.6 64.76,1.78 21.24,-5.72 39.35,-20.2 50.79,-38.28 -12.84,17.11 -30.96,30.38 -51.72,34.72 -20.49,4.88 -42.25,3 -62.11,-3.73 -10.07,-3.29 -19.31,-7.79 -29.04,-12.67 -9.64,-4.78 -19.38,-9.42 -29.32,-13.65 -19.81,-8.53 -40.39,-15.92 -61.92,-19.85 -21.57,-3.63 -43.86,-3.42 -65.28,0.92 -21.43,4.32 -41.95,12.24 -60.99,22.5 -18.55,10.04 -39.17,16.72 -60.31,16.47 -10.49,-0.06 -21.08,-1.97 -30.75,-6.3 -9.65,-4.34 -18.27,-11 -25.22,-19.18" /><path
         id="path184"
         style="fill:#576c61;fill-opacity:1;fill-rule:nonzero;stroke:none"
         d="m 6452.22,2569.37 c 6.32,8.68 14.64,16.05 24.36,20.98 9.72,4.96 20.58,7.54 31.49,8.16 21.93,1.06 43.66,-5.32 63.03,-15 19.1,-9.28 38.97,-17.1 59.7,-20.94 20.68,-3.95 41.96,-3.92 62.68,-0.23 20.75,3.6 40.91,10.55 60.54,18.76 9.84,4.06 19.52,8.55 29.15,13.2 9.45,4.7 19.69,9.38 30.16,12.34 20.89,6.32 43.62,7.61 64.76,1.79 21.24,-5.72 39.35,-20.2 50.79,-38.29 -12.84,17.11 -30.96,30.39 -51.72,34.73 -20.49,4.88 -42.25,2.99 -62.11,-3.74 -10.07,-3.28 -19.31,-7.79 -29.04,-12.66 -9.64,-4.79 -19.38,-9.43 -29.32,-13.66 -19.81,-8.52 -40.39,-15.91 -61.92,-19.85 -21.57,-3.62 -43.86,-3.41 -65.28,0.93 -21.43,4.32 -41.95,12.24 -60.99,22.5 -18.55,10.03 -39.17,16.72 -60.31,16.46 -10.49,-0.05 -21.08,-1.96 -30.75,-6.29 -9.65,-4.35 -18.27,-11.01 -25.22,-19.19" /><path
         id="path186"
         style="fill:#576c61;fill-opacity:1;fill-rule:nonzero;stroke:none"
         d="m 6452.22,2499.57 c 6.32,8.68 14.64,16.04 24.36,20.97 9.72,4.97 20.58,7.54 31.49,8.17 21.93,1.05 43.66,-5.32 63.03,-15 19.1,-9.29 38.97,-17.1 59.7,-20.94 20.68,-3.95 41.96,-3.92 62.68,-0.24 20.75,3.6 40.91,10.56 60.54,18.76 9.84,4.06 19.52,8.55 29.15,13.2 9.45,4.71 19.69,9.38 30.16,12.35 20.89,6.32 43.62,7.6 64.76,1.78 21.24,-5.72 39.35,-20.19 50.79,-38.28 -12.84,17.11 -30.96,30.38 -51.72,34.73 -20.49,4.88 -42.25,2.99 -62.11,-3.74 -10.07,-3.28 -19.31,-7.79 -29.04,-12.67 -9.64,-4.78 -19.38,-9.42 -29.32,-13.65 -19.81,-8.53 -40.39,-15.92 -61.92,-19.85 -21.57,-3.63 -43.86,-3.42 -65.28,0.92 -21.43,4.32 -41.95,12.25 -60.99,22.5 -18.55,10.04 -39.17,16.72 -60.31,16.47 -10.49,-0.05 -21.08,-1.97 -30.75,-6.29 -9.65,-4.35 -18.27,-11.01 -25.22,-19.19" /><path
         id="path188"
         style="fill:#576c61;fill-opacity:1;fill-rule:nonzero;stroke:none"
         d="m 371.328,3050.13 c 8.672,-6.32 16.039,-14.64 20.973,-24.37 4.961,-9.71 7.539,-20.58 8.16,-31.49 1.059,-21.93 -5.32,-43.65 -15,-63.03 -9.277,-19.1 -17.098,-38.97 -20.934,-59.7 -3.957,-20.69 -3.925,-41.96 -0.234,-62.67 3.598,-20.75 10.547,-40.93 18.758,-60.55 4.058,-9.84 8.551,-19.53 13.199,-29.15 4.707,-9.44 9.379,-19.69 12.344,-30.16 6.316,-20.89 7.605,-43.62 1.789,-64.76 -5.727,-21.24 -20.203,-39.35 -38.289,-50.79 17.109,12.85 30.386,30.96 34.726,51.73 4.879,20.48 2.993,42.24 -3.734,62.1 -3.281,10.07 -7.789,19.31 -12.664,29.04 -4.785,9.64 -9.426,19.38 -13.652,29.32 -8.528,19.82 -15.918,40.39 -19.856,61.92 -3.621,21.57 -3.414,43.86 0.93,65.28 4.312,21.43 12.238,41.95 22.5,60.99 10.031,18.55 16.719,39.17 16.465,60.31 -0.055,10.5 -1.969,21.08 -6.289,30.75 -4.352,9.65 -11.012,18.27 -19.192,25.23" /><path
         id="path190"
         style="fill:#576c61;fill-opacity:1;fill-rule:nonzero;stroke:none"
         d="m 301.523,3050.13 c 8.676,-6.32 16.04,-14.64 20.973,-24.37 4.965,-9.71 7.539,-20.58 8.164,-31.49 1.055,-21.93 -5.324,-43.65 -15,-63.03 -9.281,-19.1 -17.101,-38.97 -20.937,-59.7 -3.957,-20.69 -3.926,-41.96 -0.235,-62.67 3.598,-20.75 10.551,-40.93 18.758,-60.55 4.059,-9.84 8.551,-19.53 13.199,-29.15 4.707,-9.44 9.379,-19.69 12.344,-30.16 6.324,-20.89 7.606,-43.62 1.785,-64.76 -5.719,-21.24 -20.191,-39.35 -38.285,-50.79 17.109,12.85 30.387,30.96 34.731,51.73 4.878,20.48 2.992,42.24 -3.739,62.1 -3.281,10.07 -7.789,19.31 -12.668,29.04 -4.777,9.64 -9.422,19.38 -13.644,29.32 -8.531,19.82 -15.922,40.39 -19.86,61.92 -3.625,21.57 -3.414,43.86 0.926,65.28 4.32,21.43 12.242,41.95 22.5,60.99 10.035,18.55 16.723,39.17 16.473,60.31 -0.055,10.5 -1.973,21.08 -6.293,30.75 -4.348,9.65 -11.012,18.27 -19.192,25.23" /><path
         id="path192"
         style="fill:#576c61;fill-opacity:1;fill-rule:nonzero;stroke:none"
         d="m 231.723,3050.13 c 8.672,-6.32 16.035,-14.64 20.968,-24.37 4.965,-9.71 7.539,-20.58 8.164,-31.49 1.055,-21.93 -5.32,-43.65 -15,-63.03 -9.285,-19.1 -17.093,-38.97 -20.933,-59.7 -3.961,-20.69 -3.93,-41.96 -0.234,-62.67 3.597,-20.75 10.546,-40.93 18.753,-60.55 4.063,-9.84 8.551,-19.53 13.2,-29.15 4.711,-9.44 9.382,-19.69 12.347,-30.16 6.321,-20.89 7.606,-43.62 1.782,-64.76 -5.715,-21.24 -20.196,-39.35 -38.286,-50.79 17.118,12.85 30.387,30.96 34.735,51.73 4.875,20.48 2.992,42.24 -3.739,62.1 -3.285,10.07 -7.792,19.31 -12.667,29.04 -4.782,9.64 -9.422,19.38 -13.649,29.32 -8.531,19.82 -15.926,40.39 -19.859,61.92 -3.621,21.57 -3.414,43.86 0.933,65.28 4.313,21.43 12.235,41.95 22.5,60.99 10.032,18.55 16.711,39.17 16.465,60.31 -0.055,10.5 -1.969,21.08 -6.297,30.75 -4.343,9.65 -11.008,18.27 -19.183,25.23" /><path
         id="path194"
         style="fill:#576c61;fill-opacity:1;fill-rule:nonzero;stroke:none"
         d="m 4858.72,4441.99 c -8.67,6.31 -16.04,14.64 -20.97,24.37 -4.97,9.7 -7.54,20.57 -8.16,31.48 -1.06,21.93 5.31,43.66 15,63.04 9.28,19.09 17.09,38.96 20.93,59.7 3.95,20.67 3.92,41.96 0.23,62.66 -3.59,20.76 -10.54,40.93 -18.76,60.55 -4.05,9.84 -8.54,19.53 -13.19,29.16 -4.71,9.44 -9.39,19.68 -12.34,30.15 -6.32,20.89 -7.61,43.62 -1.79,64.76 5.72,21.24 20.19,39.35 38.28,50.79 -17.11,-12.85 -30.38,-30.95 -34.73,-51.72 -4.87,-20.49 -2.99,-42.25 3.74,-62.11 3.28,-10.07 7.79,-19.31 12.67,-29.04 4.78,-9.64 9.42,-19.37 13.65,-29.32 8.53,-19.82 15.92,-40.39 19.85,-61.92 3.63,-21.56 3.42,-43.86 -0.92,-65.28 -4.32,-21.43 -12.25,-41.95 -22.5,-60.99 -10.04,-18.55 -16.72,-39.17 -16.47,-60.31 0.05,-10.5 1.97,-21.07 6.29,-30.75 4.35,-9.65 11.01,-18.27 19.19,-25.22" /><path
         id="path196"
         style="fill:#576c61;fill-opacity:1;fill-rule:nonzero;stroke:none"
         d="m 4928.53,4441.99 c -8.69,6.31 -16.05,14.64 -20.98,24.37 -4.96,9.7 -7.54,20.57 -8.17,31.48 -1.05,21.93 5.33,43.66 15,63.04 9.29,19.09 17.1,38.96 20.94,59.7 3.96,20.67 3.93,41.96 0.24,62.66 -3.6,20.76 -10.55,40.93 -18.76,60.55 -4.06,9.84 -8.55,19.53 -13.2,29.16 -4.7,9.44 -9.38,19.68 -12.34,30.15 -6.33,20.89 -7.61,43.62 -1.79,64.76 5.73,21.24 20.2,39.35 38.28,50.79 -17.11,-12.85 -30.38,-30.95 -34.72,-51.72 -4.89,-20.49 -2.99,-42.25 3.74,-62.11 3.28,-10.07 7.78,-19.31 12.66,-29.04 4.78,-9.64 9.43,-19.37 13.66,-29.32 8.52,-19.82 15.91,-40.39 19.85,-61.92 3.62,-21.56 3.41,-43.86 -0.93,-65.28 -4.31,-21.43 -12.24,-41.95 -22.5,-60.99 -10.04,-18.55 -16.72,-39.17 -16.46,-60.31 0.05,-10.5 1.96,-21.07 6.29,-30.75 4.34,-9.65 11,-18.27 19.19,-25.22" /><path
         id="path198"
         style="fill:#576c61;fill-opacity:1;fill-rule:nonzero;stroke:none"
         d="m 4998.32,4441.99 c -8.67,6.31 -16.03,14.64 -20.97,24.37 -4.96,9.7 -7.54,20.57 -8.16,31.48 -1.06,21.93 5.32,43.66 15,63.04 9.29,19.09 17.1,38.96 20.94,59.7 3.95,20.67 3.92,41.96 0.23,62.66 -3.59,20.76 -10.55,40.93 -18.76,60.55 -4.06,9.84 -8.54,19.53 -13.19,29.16 -4.72,9.44 -9.39,19.68 -12.36,30.15 -6.31,20.89 -7.59,43.62 -1.77,64.76 5.72,21.24 20.19,39.35 38.28,50.79 -17.11,-12.85 -30.38,-30.95 -34.73,-51.72 -4.88,-20.49 -3,-42.25 3.73,-62.11 3.29,-10.07 7.8,-19.31 12.68,-29.04 4.77,-9.64 9.41,-19.37 13.64,-29.32 8.54,-19.82 15.93,-40.39 19.86,-61.92 3.63,-21.56 3.41,-43.86 -0.92,-65.28 -4.32,-21.43 -12.25,-41.95 -22.5,-60.99 -10.04,-18.55 -16.72,-39.17 -16.48,-60.31 0.06,-10.5 1.97,-21.07 6.3,-30.75 4.35,-9.65 11.01,-18.27 19.18,-25.22" /><path
         id="path200"
         style="fill:#83a48f;fill-opacity:1;fill-rule:nonzero;stroke:none"
         d="m 2173.24,3750 c 0,-156.48 -126.85,-283.33 -283.34,-283.33 -156.48,0 -283.33,126.85 -283.33,283.33 0,156.48 126.85,283.34 283.33,283.34 156.49,0 283.34,-126.86 283.34,-283.34" /><path
         id="path202"
         style="fill:#576c61;fill-opacity:1;fill-rule:nonzero;stroke:none"
         d="m 2146.57,3710 c -0.07,74.31 -30.87,147.73 -83.65,199.68 -52.41,52.35 -125.87,82.34 -199.68,81.78 -73.82,-0.08 -146.75,-30.67 -198.35,-83.11 -52.01,-52.06 -81.76,-125.03 -81.25,-198.35 -0.55,-73.33 29.24,-146.3 81.23,-198.36 51.61,-52.44 124.54,-83.03 198.37,-83.1 73.81,-0.56 147.28,29.43 199.68,81.78 52.78,51.95 83.58,125.37 83.65,199.68 z m 0,0 c 0.56,-74.29 -29.64,-148.26 -82.33,-201.01 -52.29,-53.12 -126.21,-84.13 -201,-84.19 -74.78,-0.57 -149.25,29.84 -202.33,82.87 -53.47,52.63 -84.68,127.06 -84.74,202.33 0.01,75.28 31.26,149.71 84.72,202.34 53.09,53.04 127.57,83.45 202.35,82.87 74.79,-0.06 148.72,-31.07 201.01,-84.19 52.69,-52.75 82.88,-126.72 82.32,-201.02" /><path
         id="path204"
         style="fill:#e9a584;fill-opacity:1;fill-rule:nonzero;stroke:none"
         d="m 6278.16,910.43 c 0,-190.149 -154.14,-344.289 -344.28,-344.289 -190.15,0 -344.29,154.14 -344.29,344.289 0,190.15 154.14,344.29 344.29,344.29 190.14,0 344.28,-154.14 344.28,-344.29" /><path
         id="path206"
         style="fill:#576c61;fill-opacity:1;fill-rule:nonzero;stroke:none"
         d="m 6245.73,850.43 c -0.23,45.082 -9.26,90.062 -26.66,131.57 -17.34,41.53 -42.97,79.52 -74.84,111.21 -31.92,31.66 -70.05,56.98 -111.57,73.98 -41.52,17.07 -86.38,25.73 -131.21,25.65 -44.84,-0.24 -89.57,-9.21 -130.85,-26.52 -41.29,-17.25 -79.09,-42.74 -110.61,-74.44 -31.47,-31.73 -56.65,-69.66 -73.56,-110.958 -16.99,-41.293 -25.56,-85.891 -25.53,-130.492 -0.08,-44.59 8.53,-89.211 25.51,-130.489 16.91,-41.312 42.09,-79.23 73.57,-110.98 31.52,-31.691 69.32,-57.18 110.62,-74.43 41.28,-17.312 86.01,-26.281 130.85,-26.511 44.83,-0.079 89.69,8.57 131.21,25.64 41.53,17.012 79.65,42.332 111.57,73.992 31.88,31.688 57.5,69.68 74.84,111.219 17.41,41.5 26.43,86.481 26.66,131.559 z m 0,0 c 0.08,-45.071 -8.63,-90.192 -25.79,-131.918 -17.11,-41.762 -42.56,-80.102 -74.38,-112.18 -31.87,-32.051 -70.08,-57.812 -111.83,-75.262 -41.74,-17.5 -86.97,-26.558 -132.28,-26.789 -45.32,-0.082 -90.68,8.668 -132.65,25.93 -41.98,17.199 -80.53,42.789 -112.78,74.789 -32.22,32.039 -58.12,70.449 -75.66,112.43 -17.6,41.961 -26.71,87.441 -26.94,133 0.18,45.57 9.33,91.039 26.92,133.011 17.54,41.979 43.44,80.399 75.67,112.439 32.25,32 70.8,57.59 112.79,74.78 41.97,17.27 87.33,26.02 132.65,25.94 45.32,-0.23 90.55,-9.31 132.28,-26.81 41.76,-17.44 79.96,-43.2 111.83,-75.25 31.82,-32.08 57.27,-70.42 74.38,-112.181 17.17,-41.738 25.87,-86.847 25.79,-131.929" /><path
         id="path208"
         style="fill:#576c61;fill-opacity:1;fill-rule:nonzero;stroke:none"
         d="m 5222.02,241.852 v 0 c 0,16.117 13.08,29.187 29.2,29.187 h 718.24 c 16.13,0 29.2,-13.07 29.2,-29.187 v 0 c 0,-16.133 -13.07,-29.2 -29.2,-29.2 h -718.24 c -16.12,0 -29.2,13.067 -29.2,29.2" /><path
         id="path210"
         style="fill:#576c61;fill-opacity:1;fill-rule:nonzero;stroke:none"
         d="m 5289.77,129.23 v 0 c 0,16.122 13.07,29.2 29.2,29.2 h 718.24 c 16.12,0 29.2,-13.078 29.2,-29.2 v 0 c 0,-16.128 -13.08,-29.21 -29.2,-29.21 h -718.24 c -16.13,0 -29.2,13.082 -29.2,29.21" /><path
         id="path212"
         style="fill:#576c61;fill-opacity:1;fill-rule:nonzero;stroke:none"
         d="m 902.016,4918.63 v 0 c 16.129,0 29.199,-13.08 29.199,-29.2 v -718.24 c 0,-16.13 -13.07,-29.2 -29.199,-29.2 v 0 c -16.125,0 -29.2,13.07 -29.2,29.2 v 718.24 c 0,16.12 13.075,29.2 29.2,29.2" /><path
         id="path214"
         style="fill:#576c61;fill-opacity:1;fill-rule:nonzero;stroke:none"
         d="m 789.395,4850.88 v 0 c 16.128,0 29.199,-13.07 29.199,-29.2 v -718.23 c 0,-16.13 -13.071,-29.21 -29.199,-29.21 v 0 c -16.129,0 -29.2,13.08 -29.2,29.21 v 718.23 c 0,16.13 13.071,29.2 29.2,29.2" /></g></g></svg>